<?xml version="1.0" encoding="UTF-8" standalone="no"?>
<!DOCTYPE svg PUBLIC "-//W3C//DTD SVG 1.1//EN"
 "http://www.w3.org/Graphics/SVG/1.1/DTD/svg11.dtd">
<!-- Generated by graphviz version 2.43.0 (0)
 -->
<!-- Title: %3 Pages: 1 -->
<svg width="275pt" height="260pt"
 viewBox="0.00 0.00 275.34 260.00" xmlns="http://www.w3.org/2000/svg" xmlns:xlink="http://www.w3.org/1999/xlink">
<g id="graph0" class="graph" transform="scale(1 1) rotate(0) translate(4 256)">
<title>%3</title>
<polygon fill="white" stroke="transparent" points="-4,4 -4,-256 271.34,-256 271.34,4 -4,4"/>
<!-- Included -->
<g id="node1" class="node">
<title>Included</title>
<ellipse fill="none" stroke="black" cx="119" cy="-234" rx="50.89" ry="18"/>
<text text-anchor="middle" x="119" y="-230.3" font-family="Times,serif" font-size="14.00">Included</text>
</g>
<!-- Assignments -->
<g id="node2" class="node">
<title>Assignments</title>
<ellipse fill="none" stroke="black" cx="119" cy="-162" rx="70.39" ry="18"/>
<text text-anchor="middle" x="119" y="-158.3" font-family="Times,serif" font-size="14.00">Assignments</text>
</g>
<!-- Included&#45;&gt;Assignments -->
<g id="edge1" class="edge">
<title>Included&#45;&gt;Assignments</title>
<path fill="none" stroke="black" d="M119,-215.7C119,-207.98 119,-198.71 119,-190.11"/>
<polygon fill="black" stroke="black" points="122.5,-190.1 119,-180.1 115.5,-190.1 122.5,-190.1"/>
</g>
<!-- Approval -->
<g id="node3" class="node">
<title>Approval</title>
<ellipse fill="none" stroke="black" cx="52" cy="-90" rx="51.99" ry="18"/>
<text text-anchor="middle" x="52" y="-86.3" font-family="Times,serif" font-size="14.00">Approval</text>
</g>
<!-- Assignments&#45;&gt;Approval -->
<g id="edge2" class="edge">
<title>Assignments&#45;&gt;Approval</title>
<path fill="none" stroke="black" d="M103.12,-144.41C94.69,-135.61 84.18,-124.63 74.89,-114.92"/>
<polygon fill="black" stroke="black" points="77.2,-112.27 67.76,-107.47 72.15,-117.11 77.2,-112.27"/>
</g>
<!-- Escalation -->
<g id="node5" class="node">
<title>Escalation</title>
<ellipse fill="none" stroke="black" cx="187" cy="-90" rx="59.29" ry="18"/>
<text text-anchor="middle" x="187" y="-86.3" font-family="Times,serif" font-size="14.00">Escalation</text>
</g>
<!-- Assignments&#45;&gt;Escalation -->
<g id="edge4" class="edge">
<title>Assignments&#45;&gt;Escalation</title>
<path fill="none" stroke="black" d="M135.11,-144.41C143.66,-135.61 154.33,-124.63 163.76,-114.92"/>
<polygon fill="black" stroke="black" points="166.54,-117.08 171,-107.47 161.52,-112.2 166.54,-117.08"/>
</g>
<!-- Finality -->
<g id="node4" class="node">
<title>Finality</title>
<ellipse fill="none" stroke="black" cx="49" cy="-18" rx="46.29" ry="18"/>
<text text-anchor="middle" x="49" y="-14.3" font-family="Times,serif" font-size="14.00">Finality</text>
</g>
<!-- Approval&#45;&gt;Finality -->
<g id="edge3" class="edge">
<title>Approval&#45;&gt;Finality</title>
<path fill="none" stroke="black" d="M51.25,-71.7C50.92,-63.98 50.53,-54.71 50.16,-46.11"/>
<polygon fill="black" stroke="black" points="53.65,-45.95 49.73,-36.1 46.66,-46.25 53.65,-45.95"/>
</g>
<!-- Consequences -->
<g id="node6" class="node">
<title>Consequences</title>
<ellipse fill="none" stroke="black" cx="190" cy="-18" rx="77.19" ry="18"/>
<text text-anchor="middle" x="190" y="-14.3" font-family="Times,serif" font-size="14.00">Consequences</text>
</g>
<!-- Escalation&#45;&gt;Consequences -->
<g id="edge5" class="edge">
<title>Escalation&#45;&gt;Consequences</title>
<path fill="none" stroke="black" d="M187.74,-71.7C188.07,-63.98 188.46,-54.71 188.83,-46.11"/>
<polygon fill="black" stroke="black" points="192.33,-46.25 189.26,-36.1 185.34,-45.95 192.33,-46.25"/>
</g>
</g>
</svg>
