<?xml version="1.0" encoding="UTF-8" standalone="no"?>
<!DOCTYPE svg PUBLIC "-//W3C//DTD SVG 1.1//EN"
 "http://www.w3.org/Graphics/SVG/1.1/DTD/svg11.dtd">
<!-- Generated by graphviz version 2.43.0 (0)
 -->
<!-- Title: %3 Pages: 1 -->
<svg width="207pt" height="260pt"
 viewBox="0.00 0.00 207.00 260.00" xmlns="http://www.w3.org/2000/svg" xmlns:xlink="http://www.w3.org/1999/xlink">
<g id="graph0" class="graph" transform="scale(1 1) rotate(0) translate(4 256)">
<title>%3</title>
<polygon fill="white" stroke="transparent" points="-4,4 -4,-256 203,-256 203,4 -4,4"/>
<!-- genesis -->
<g id="node1" class="node">
<title>genesis</title>
<polygon fill="none" stroke="black" points="157,-36 84,-36 84,0 157,0 157,-36"/>
<text text-anchor="middle" x="120.5" y="-14.3" font-family="Times,serif" font-size="14.00">Genesis</text>
</g>
<!-- b1 -->
<g id="node2" class="node">
<title>b1</title>
<polygon fill="none" stroke="black" points="112,-108 43,-108 43,-72 112,-72 112,-108"/>
<text text-anchor="middle" x="77.5" y="-86.3" font-family="Times,serif" font-size="14.00">Block 1</text>
</g>
<!-- b1&#45;&gt;genesis -->
<g id="edge5" class="edge">
<title>b1&#45;&gt;genesis</title>
<path fill="none" stroke="black" d="M88.13,-71.7C93.13,-63.56 99.19,-53.69 104.71,-44.7"/>
<polygon fill="black" stroke="black" points="107.74,-46.46 109.99,-36.1 101.78,-42.79 107.74,-46.46"/>
</g>
<!-- b2 -->
<g id="node3" class="node">
<title>b2</title>
<polygon fill="none" stroke="black" points="199,-108 130,-108 130,-72 199,-72 199,-108"/>
<text text-anchor="middle" x="164.5" y="-86.3" font-family="Times,serif" font-size="14.00">Block 2</text>
</g>
<!-- b2&#45;&gt;genesis -->
<g id="edge4" class="edge">
<title>b2&#45;&gt;genesis</title>
<path fill="none" stroke="black" d="M153.62,-71.7C148.51,-63.56 142.3,-53.69 136.66,-44.7"/>
<polygon fill="black" stroke="black" points="139.54,-42.71 131.25,-36.1 133.61,-46.43 139.54,-42.71"/>
</g>
<!-- b3 -->
<g id="node4" class="node">
<title>b3</title>
<polygon fill="none" stroke="black" points="112,-180 43,-180 43,-144 112,-144 112,-180"/>
<text text-anchor="middle" x="77.5" y="-158.3" font-family="Times,serif" font-size="14.00">Block 3</text>
</g>
<!-- b3&#45;&gt;b1 -->
<g id="edge3" class="edge">
<title>b3&#45;&gt;b1</title>
<path fill="none" stroke="black" d="M77.5,-143.7C77.5,-135.98 77.5,-126.71 77.5,-118.11"/>
<polygon fill="black" stroke="black" points="81,-118.1 77.5,-108.1 74,-118.1 81,-118.1"/>
</g>
<!-- b4 -->
<g id="node5" class="node">
<title>b4</title>
<polygon fill="none" stroke="black" points="69,-252 0,-252 0,-216 69,-216 69,-252"/>
<text text-anchor="middle" x="34.5" y="-230.3" font-family="Times,serif" font-size="14.00">Block 4</text>
</g>
<!-- b4&#45;&gt;b3 -->
<g id="edge2" class="edge">
<title>b4&#45;&gt;b3</title>
<path fill="none" stroke="black" d="M45.13,-215.7C50.13,-207.56 56.19,-197.69 61.71,-188.7"/>
<polygon fill="black" stroke="black" points="64.74,-190.46 66.99,-180.1 58.78,-186.79 64.74,-190.46"/>
</g>
<!-- b5 -->
<g id="node6" class="node">
<title>b5</title>
<polygon fill="none" stroke="black" points="156,-252 87,-252 87,-216 156,-216 156,-252"/>
<text text-anchor="middle" x="121.5" y="-230.3" font-family="Times,serif" font-size="14.00">Block 5</text>
</g>
<!-- b5&#45;&gt;b3 -->
<g id="edge1" class="edge">
<title>b5&#45;&gt;b3</title>
<path fill="none" stroke="black" d="M110.62,-215.7C105.51,-207.56 99.3,-197.69 93.66,-188.7"/>
<polygon fill="black" stroke="black" points="96.54,-186.71 88.25,-180.1 90.61,-190.43 96.54,-186.71"/>
</g>
</g>
</svg>
