<?xml version="1.0" encoding="UTF-8" standalone="no"?>
<!DOCTYPE svg PUBLIC "-//W3C//DTD SVG 1.1//EN"
 "http://www.w3.org/Graphics/SVG/1.1/DTD/svg11.dtd">
<!-- Generated by graphviz version 2.43.0 (0)
 -->
<!-- Title: G Pages: 1 -->
<svg width="368pt" height="255pt"
 viewBox="0.00 0.00 368.00 255.00" xmlns="http://www.w3.org/2000/svg" xmlns:xlink="http://www.w3.org/1999/xlink">
<g id="graph0" class="graph" transform="scale(1 1) rotate(0) translate(4 251)">
<title>G</title>
<polygon fill="white" stroke="transparent" points="-4,4 -4,-251 364,-251 364,4 -4,4"/>
<!-- Runtime -->
<g id="node1" class="node">
<title>Runtime</title>
<polygon fill="none" stroke="black" points="218.5,-247 141.5,-247 141.5,-211 218.5,-211 218.5,-247"/>
<text text-anchor="middle" x="180" y="-225.3" font-family="Times,serif" font-size="14.00">Runtime</text>
</g>
<!-- Node -->
<g id="node2" class="node">
<title>Node</title>
<polygon fill="none" stroke="black" points="235,-160 125,-160 125,-73 235,-73 235,-160"/>
<text text-anchor="middle" x="180" y="-112.8" font-family="Times,serif" font-size="14.00">Node</text>
</g>
<!-- Runtime&#45;&gt;Node -->
<g id="edge1" class="edge">
<title>Runtime&#45;&gt;Node</title>
<path fill="none" stroke="black" d="M180,-200.39C180,-191.32 180,-180.91 180,-170.6"/>
<polygon fill="black" stroke="black" points="176.5,-200.73 180,-210.73 183.5,-200.73 176.5,-200.73"/>
<polygon fill="black" stroke="black" points="183.5,-170.38 180,-160.38 176.5,-170.38 183.5,-170.38"/>
<text text-anchor="middle" x="225.5" y="-181.8" font-family="Times,serif" font-size="14.00">Runtime API</text>
</g>
<!-- Transport -->
<g id="node3" class="node">
<title>Transport</title>
<polygon fill="none" stroke="black" points="360,-36 0,-36 0,0 360,0 360,-36"/>
<text text-anchor="middle" x="180" y="-14.3" font-family="Times,serif" font-size="14.00">Transport</text>
</g>
<!-- Node&#45;&gt;Transport -->
<g id="edge2" class="edge">
<title>Node&#45;&gt;Transport</title>
<path fill="none" stroke="black" d="M180,-72.89C180,-63.91 180,-54.65 180,-46.41"/>
<polygon fill="black" stroke="black" points="183.5,-46.25 180,-36.25 176.5,-46.25 183.5,-46.25"/>
</g>
</g>
</svg>
