<?xml version="1.0" encoding="UTF-8" standalone="no"?>
<!DOCTYPE svg PUBLIC "-//W3C//DTD SVG 1.1//EN"
 "http://www.w3.org/Graphics/SVG/1.1/DTD/svg11.dtd">
<!-- Generated by graphviz version 2.43.0 (0)
 -->
<!-- Title: %3 Pages: 1 -->
<svg width="273pt" height="131pt"
 viewBox="0.00 0.00 273.00 131.00" xmlns="http://www.w3.org/2000/svg" xmlns:xlink="http://www.w3.org/1999/xlink">
<g id="graph0" class="graph" transform="scale(1 1) rotate(0) translate(4 127)">
<title>%3</title>
<polygon fill="white" stroke="transparent" points="-4,4 -4,-127 269,-127 269,4 -4,4"/>
<!-- rc -->
<g id="node1" class="node">
<title>rc</title>
<polygon fill="none" stroke="gray" points="132.5,-123 38.99,-105 132.5,-87 226.01,-105 132.5,-123"/>
<polyline fill="none" stroke="gray" points="50.77,-107.27 50.77,-102.73 "/>
<polyline fill="none" stroke="gray" points="120.72,-89.27 144.28,-89.27 "/>
<polyline fill="none" stroke="gray" points="214.23,-102.73 214.23,-107.27 "/>
<polyline fill="none" stroke="gray" points="144.28,-120.73 120.72,-120.73 "/>
<text text-anchor="middle" x="132.5" y="-101.3" font-family="Times,serif" font-size="14.00" fill="gray">Relay Chain</text>
</g>
<!-- p1 -->
<g id="node2" class="node">
<title>p1</title>
<polygon fill="none" stroke="black" points="265,-36 164,-36 164,0 265,0 265,-36"/>
<text text-anchor="middle" x="214.5" y="-14.3" font-family="Times,serif" font-size="14.00">Parachain 1</text>
</g>
<!-- rc&#45;&gt;p1 -->
<g id="edge1" class="edge">
<title>rc&#45;&gt;p1</title>
<path fill="none" stroke="gray" d="M139.98,-88.42C145.52,-77.93 153.77,-64.2 163.5,-54 167.54,-49.77 172.17,-45.76 176.95,-42.06"/>
<polygon fill="gray" stroke="gray" points="179.04,-44.86 185.07,-36.15 174.92,-39.2 179.04,-44.86"/>
<text text-anchor="middle" x="181.5" y="-57.8" font-family="Times,serif" font-size="14.00" fill="gray">DMP</text>
</g>
<!-- p2 -->
<g id="node3" class="node">
<title>p2</title>
<polygon fill="none" stroke="black" points="101,-36 0,-36 0,0 101,0 101,-36"/>
<text text-anchor="middle" x="50.5" y="-14.3" font-family="Times,serif" font-size="14.00">Parachain 2</text>
</g>
<!-- rc&#45;&gt;p2 -->
<g id="edge3" class="edge">
<title>rc&#45;&gt;p2</title>
<path fill="none" stroke="gray" d="M84.58,-96.01C69.18,-90.92 53.73,-82.61 44.5,-69 39.94,-62.29 39.48,-53.87 40.74,-45.86"/>
<polygon fill="gray" stroke="gray" points="44.15,-46.65 43.08,-36.11 37.34,-45.01 44.15,-46.65"/>
<text text-anchor="middle" x="62.5" y="-57.8" font-family="Times,serif" font-size="14.00" fill="gray">DMP</text>
</g>
<!-- p1&#45;&gt;rc -->
<g id="edge2" class="edge">
<title>p1&#45;&gt;rc</title>
<path fill="none" stroke="gray" d="M212.71,-36.34C210.87,-46.77 207.12,-59.78 199.5,-69 192.72,-77.2 183.52,-83.72 174.1,-88.8"/>
<polygon fill="gray" stroke="gray" points="172.51,-85.68 165.08,-93.23 175.6,-91.96 172.51,-85.68"/>
<text text-anchor="middle" x="227" y="-57.8" font-family="Times,serif" font-size="14.00" fill="gray">UMP</text>
</g>
<!-- p2&#45;&gt;rc -->
<g id="edge4" class="edge">
<title>p2&#45;&gt;rc</title>
<path fill="none" stroke="gray" d="M67.03,-36.13C79.8,-49.37 97.58,-67.8 111.38,-82.11"/>
<polygon fill="gray" stroke="gray" points="109.13,-84.81 118.59,-89.58 114.17,-79.95 109.13,-84.81"/>
<text text-anchor="middle" x="115" y="-57.8" font-family="Times,serif" font-size="14.00" fill="gray">UMP</text>
</g>
<!-- p2&#45;&gt;p1 -->
<g id="edge5" class="edge">
<title>p2&#45;&gt;p1</title>
<path fill="none" stroke="black" d="M111.07,-18C124.9,-18 139.6,-18 153.45,-18"/>
<polygon fill="black" stroke="black" points="111.04,-14.5 101.04,-18 111.04,-21.5 111.04,-14.5"/>
<polygon fill="black" stroke="black" points="153.84,-21.5 163.84,-18 153.84,-14.5 153.84,-21.5"/>
<text text-anchor="middle" x="132.5" y="-24.8" font-family="Times,serif" font-size="14.00">XCMP</text>
</g>
</g>
</svg>
