<?xml version="1.0" encoding="UTF-8" standalone="no"?>
<!DOCTYPE svg PUBLIC "-//W3C//DTD SVG 1.1//EN"
 "http://www.w3.org/Graphics/SVG/1.1/DTD/svg11.dtd">
<!-- Generated by graphviz version 2.43.0 (0)
 -->
<!-- Title: %3 Pages: 1 -->
<svg width="196pt" height="131pt"
 viewBox="0.00 0.00 195.51 131.00" xmlns="http://www.w3.org/2000/svg" xmlns:xlink="http://www.w3.org/1999/xlink">
<g id="graph0" class="graph" transform="scale(1 1) rotate(0) translate(4 127)">
<title>%3</title>
<polygon fill="white" stroke="transparent" points="-4,4 -4,-127 191.51,-127 191.51,4 -4,4"/>
<!-- rc -->
<g id="node1" class="node">
<title>rc</title>
<polygon fill="none" stroke="black" points="93.75,-123 0.25,-105 93.75,-87 187.26,-105 93.75,-123"/>
<polyline fill="none" stroke="black" points="12.03,-107.27 12.03,-102.73 "/>
<polyline fill="none" stroke="black" points="81.97,-89.27 105.54,-89.27 "/>
<polyline fill="none" stroke="black" points="175.48,-102.73 175.48,-107.27 "/>
<polyline fill="none" stroke="black" points="105.54,-120.73 81.97,-120.73 "/>
<text text-anchor="middle" x="93.75" y="-101.3" font-family="Times,serif" font-size="14.00">Relay Chain</text>
</g>
<!-- p1 -->
<g id="node2" class="node">
<title>p1</title>
<polygon fill="none" stroke="black" points="137.25,-36 50.25,-36 50.25,0 137.25,0 137.25,-36"/>
<text text-anchor="middle" x="93.75" y="-14.3" font-family="Times,serif" font-size="14.00">Parachain</text>
</g>
<!-- rc&#45;&gt;p1 -->
<g id="edge1" class="edge">
<title>rc&#45;&gt;p1</title>
<path fill="none" stroke="black" d="M78.7,-89.71C73.56,-83.84 68.43,-76.64 65.75,-69 62.87,-60.77 65.24,-52.31 69.61,-44.74"/>
<polygon fill="black" stroke="black" points="72.62,-46.55 75.47,-36.34 66.88,-42.55 72.62,-46.55"/>
<text text-anchor="middle" x="83.75" y="-57.8" font-family="Times,serif" font-size="14.00">DMP</text>
</g>
<!-- p1&#45;&gt;rc -->
<g id="edge2" class="edge">
<title>p1&#45;&gt;rc</title>
<path fill="none" stroke="black" d="M98.81,-36.07C101.08,-45.71 103,-57.99 101.75,-69 101.43,-71.9 100.95,-74.92 100.39,-77.9"/>
<polygon fill="black" stroke="black" points="96.96,-77.24 98.27,-87.75 103.8,-78.71 96.96,-77.24"/>
<text text-anchor="middle" x="120.25" y="-57.8" font-family="Times,serif" font-size="14.00">UMP</text>
</g>
</g>
</svg>
