<?xml version="1.0" encoding="UTF-8" standalone="no"?>
<!DOCTYPE svg PUBLIC "-//W3C//DTD SVG 1.1//EN"
 "http://www.w3.org/Graphics/SVG/1.1/DTD/svg11.dtd">
<!-- Generated by graphviz version 2.43.0 (0)
 -->
<!-- Title: %3 Pages: 1 -->
<svg width="701pt" height="303pt"
 viewBox="0.00 0.00 701.20 303.20" xmlns="http://www.w3.org/2000/svg" xmlns:xlink="http://www.w3.org/1999/xlink">
<g id="graph0" class="graph" transform="scale(1 1) rotate(0) translate(4 299.2)">
<title>%3</title>
<polygon fill="white" stroke="transparent" points="-4,4 -4,-299.2 697.2,-299.2 697.2,4 -4,4"/>
<!-- rca -->
<g id="node1" class="node">
<title>rca</title>
<polygon fill="none" stroke="black" points="402.6,-36 288.6,-36 288.6,0 402.6,0 402.6,-36"/>
<text text-anchor="middle" x="345.6" y="-14.3" font-family="Times,serif" font-size="14.00">Relay Block A</text>
</g>
<!-- rcb -->
<g id="node2" class="node">
<title>rcb</title>
<polygon fill="none" stroke="black" points="403.1,-108 288.1,-108 288.1,-72 403.1,-72 403.1,-108"/>
<text text-anchor="middle" x="345.6" y="-86.3" font-family="Times,serif" font-size="14.00">Relay Block B</text>
</g>
<!-- rcb&#45;&gt;rca -->
<g id="edge1" class="edge">
<title>rcb&#45;&gt;rca</title>
<path fill="none" stroke="black" d="M345.6,-71.7C345.6,-63.98 345.6,-54.71 345.6,-46.11"/>
<polygon fill="black" stroke="black" points="349.1,-46.1 345.6,-36.1 342.1,-46.1 349.1,-46.1"/>
</g>
<!-- rcc -->
<g id="node3" class="node">
<title>rcc</title>
<polygon fill="none" stroke="black" points="336.1,-180 221.1,-180 221.1,-144 336.1,-144 336.1,-180"/>
<text text-anchor="middle" x="278.6" y="-158.3" font-family="Times,serif" font-size="14.00">Relay Block C</text>
</g>
<!-- rcc&#45;&gt;rcb -->
<g id="edge2" class="edge">
<title>rcc&#45;&gt;rcb</title>
<path fill="none" stroke="black" d="M295.16,-143.7C303.28,-135.22 313.19,-124.86 322.07,-115.58"/>
<polygon fill="black" stroke="black" points="324.84,-117.75 329.23,-108.1 319.79,-112.91 324.84,-117.75"/>
</g>
<!-- rcc_prime -->
<g id="node4" class="node">
<title>rcc_prime</title>
<polygon fill="none" stroke="black" points="473.1,-180 354.1,-180 354.1,-144 473.1,-144 473.1,-180"/>
<text text-anchor="middle" x="413.6" y="-158.3" font-family="Times,serif" font-size="14.00">Relay Block C&#39;</text>
</g>
<!-- rcc_prime&#45;&gt;rcb -->
<g id="edge3" class="edge">
<title>rcc_prime&#45;&gt;rcb</title>
<path fill="none" stroke="black" d="M396.79,-143.7C388.48,-135.14 378.3,-124.66 369.21,-115.3"/>
<polygon fill="black" stroke="black" points="371.7,-112.84 362.22,-108.1 366.67,-117.72 371.7,-112.84"/>
</g>
<!-- vg1 -->
<g id="node5" class="node">
<title>vg1</title>
<ellipse fill="none" stroke="black" cx="109.6" cy="-255.6" rx="109.7" ry="32.55"/>
<text text-anchor="start" x="40.1" y="-264.4" font-family="Times,serif" font-weight="bold" font-size="14.00">Validator Group 1</text>
<text text-anchor="start" x="46.1" y="-239.6" font-family="Times,serif" font-size="10.00">(Validator 4) (Validator 1)</text>
</g>
<!-- vg1&#45;&gt;rcc -->
<g id="edge4" class="edge">
<title>vg1&#45;&gt;rcc</title>
<path fill="none" stroke="black" stroke-dasharray="5,2" d="M161.23,-226.62C189.18,-211.47 222.83,-193.23 246.91,-180.18"/>
</g>
<!-- vg2 -->
<g id="node6" class="node">
<title>vg2</title>
<ellipse fill="none" stroke="black" cx="583.6" cy="-255.6" rx="109.7" ry="32.55"/>
<text text-anchor="start" x="514.1" y="-264.4" font-family="Times,serif" font-weight="bold" font-size="14.00">Validator Group 2</text>
<text text-anchor="start" x="520.1" y="-239.6" font-family="Times,serif" font-size="10.00">(Validator 7) (Validator 6)</text>
</g>
<!-- vg2&#45;&gt;rcc_prime -->
<g id="edge5" class="edge">
<title>vg2&#45;&gt;rcc_prime</title>
<path fill="none" stroke="black" stroke-dasharray="5,2" d="M532.13,-226.87C503.89,-211.65 469.77,-193.26 445.4,-180.13"/>
</g>
<!-- vg3 -->
<g id="node7" class="node">
<title>vg3</title>
<ellipse fill="none" stroke="black" cx="346.6" cy="-255.6" rx="109.7" ry="39.7"/>
<text text-anchor="start" x="277.1" y="-269.4" font-family="Times,serif" font-weight="bold" font-size="14.00">Validator Group 3</text>
<text text-anchor="start" x="283.1" y="-244.6" font-family="Times,serif" font-size="10.00">(Validator 2) (Validator 3)</text>
<text text-anchor="start" x="315.6" y="-234.6" font-family="Times,serif" font-size="10.00">(Validator 5)</text>
</g>
<!-- vg3&#45;&gt;rcc -->
<g id="edge7" class="edge">
<title>vg3&#45;&gt;rcc</title>
<path fill="none" stroke="black" stroke-dasharray="5,2" d="M318.75,-217.08C309.21,-204.23 299.01,-190.49 291.27,-180.07"/>
</g>
<!-- vg3&#45;&gt;rcc_prime -->
<g id="edge6" class="edge">
<title>vg3&#45;&gt;rcc_prime</title>
<path fill="none" stroke="black" stroke-dasharray="5,2" d="M374.05,-217.08C383.44,-204.23 393.5,-190.49 401.12,-180.07"/>
</g>
</g>
</svg>
