<?xml version="1.0" encoding="UTF-8" standalone="no"?>
<!DOCTYPE svg PUBLIC "-//W3C//DTD SVG 1.1//EN"
 "http://www.w3.org/Graphics/SVG/1.1/DTD/svg11.dtd">
<!-- Generated by graphviz version 2.43.0 (0)
 -->
<!-- Title: %3 Pages: 1 -->
<svg width="412pt" height="392pt"
 viewBox="0.00 0.00 412.20 391.53" xmlns="http://www.w3.org/2000/svg" xmlns:xlink="http://www.w3.org/1999/xlink">
<g id="graph0" class="graph" transform="scale(1 1) rotate(0) translate(4 387.53)">
<title>%3</title>
<polygon fill="white" stroke="transparent" points="-4,4 -4,-387.53 408.2,-387.53 408.2,4 -4,4"/>
<!-- rca -->
<g id="node1" class="node">
<title>rca</title>
<polygon fill="none" stroke="black" points="304.6,-36 190.6,-36 190.6,0 304.6,0 304.6,-36"/>
<text text-anchor="middle" x="247.6" y="-14.3" font-family="Times,serif" font-size="14.00">Relay Block A</text>
</g>
<!-- rcb -->
<g id="node2" class="node">
<title>rcb</title>
<polygon fill="none" stroke="black" points="305.1,-109 190.1,-109 190.1,-73 305.1,-73 305.1,-109"/>
<text text-anchor="middle" x="247.6" y="-87.3" font-family="Times,serif" font-size="14.00">Relay Block B</text>
</g>
<!-- rcb&#45;&gt;rca -->
<g id="edge1" class="edge">
<title>rcb&#45;&gt;rca</title>
<path fill="none" stroke="black" d="M247.6,-72.81C247.6,-64.79 247.6,-55.05 247.6,-46.07"/>
<polygon fill="black" stroke="black" points="251.1,-46.03 247.6,-36.03 244.1,-46.03 251.1,-46.03"/>
</g>
<!-- rcc -->
<g id="node3" class="node">
<title>rcc</title>
<polygon fill="none" stroke="black" points="167.1,-217.6 52.1,-217.6 52.1,-181.6 167.1,-181.6 167.1,-217.6"/>
<text text-anchor="middle" x="109.6" y="-195.9" font-family="Times,serif" font-size="14.00">Relay Block C</text>
</g>
<!-- rcc&#45;&gt;rcb -->
<g id="edge2" class="edge">
<title>rcc&#45;&gt;rcb</title>
<path fill="none" stroke="black" d="M131.77,-181.47C155.01,-163.52 191.66,-135.21 217.51,-115.25"/>
<polygon fill="black" stroke="black" points="219.71,-117.97 225.48,-109.08 215.43,-112.43 219.71,-117.97"/>
</g>
<!-- vg1 -->
<g id="node4" class="node">
<title>vg1</title>
<ellipse fill="none" stroke="black" cx="109.6" cy="-336.87" rx="109.7" ry="46.84"/>
<text text-anchor="start" x="40.1" y="-355.67" font-family="Times,serif" font-weight="bold" font-size="14.00">Validator Group 1</text>
<text text-anchor="start" x="78.6" y="-330.87" font-family="Times,serif" font-size="10.00">(Validator 4)</text>
<text text-anchor="start" x="46.1" y="-320.87" font-family="Times,serif" font-size="10.00">(Validator 1) (Validator 2)</text>
<text text-anchor="start" x="78.6" y="-310.87" font-family="Times,serif" font-size="10.00">(Validator 5)</text>
</g>
<!-- vg1&#45;&gt;rcc -->
<g id="edge3" class="edge">
<title>vg1&#45;&gt;rcc</title>
<path fill="none" stroke="black" stroke-dasharray="5,2" d="M109.6,-290.07C109.6,-265.24 109.6,-236 109.6,-217.88"/>
<text text-anchor="middle" x="158.1" y="-261" font-family="Times,serif" font-size="14.00">Building on C</text>
</g>
<!-- vg2 -->
<g id="node5" class="node">
<title>vg2</title>
<ellipse fill="none" stroke="black" cx="294.6" cy="-199.6" rx="109.7" ry="39.7"/>
<text text-anchor="start" x="225.1" y="-213.4" font-family="Times,serif" font-weight="bold" font-size="14.00">Validator Group 2</text>
<text text-anchor="start" x="263.6" y="-188.6" font-family="Times,serif" font-size="10.00">(Validator 7)</text>
<text text-anchor="start" x="231.1" y="-178.6" font-family="Times,serif" font-size="10.00">(Validator 3) (Validator 6)</text>
</g>
<!-- vg2&#45;&gt;rcb -->
<g id="edge4" class="edge">
<title>vg2&#45;&gt;rcb</title>
<path fill="none" stroke="black" stroke-dasharray="5,2" d="M277.77,-160.41C270.02,-142.85 261.23,-122.9 255.14,-109.09"/>
<text text-anchor="middle" x="316.1" y="-130.8" font-family="Times,serif" font-size="14.00">Building on B</text>
</g>
</g>
</svg>
