<?xml version="1.0" encoding="UTF-8" standalone="no"?>
<!DOCTYPE svg PUBLIC "-//W3C//DTD SVG 1.1//EN"
 "http://www.w3.org/Graphics/SVG/1.1/DTD/svg11.dtd">
<!-- Generated by graphviz version 2.43.0 (0)
 -->
<!-- Title: %3 Pages: 1 -->
<svg width="446pt" height="779pt"
 viewBox="0.00 0.00 446.00 779.25" xmlns="http://www.w3.org/2000/svg" xmlns:xlink="http://www.w3.org/1999/xlink">
<g id="graph0" class="graph" transform="scale(1 1) rotate(0) translate(4 775.25)">
<title>%3</title>
<polygon fill="white" stroke="transparent" points="-4,4 -4,-775.25 442,-775.25 442,4 -4,4"/>
<g id="clust1" class="cluster">
<title>cluster_vg</title>
<polygon fill="lightgrey" stroke="lightgrey" points="8,-444.25 8,-694.25 309,-694.25 309,-444.25 8,-444.25"/>
<text text-anchor="start" x="16" y="-679.05" font-family="Times,serif" font-size="14.00">Parachain Validators</text>
<text text-anchor="start" x="41" y="-664.05" font-family="Times,serif" font-size="14.00">(subset of all)</text>
</g>
<g id="clust2" class="cluster">
<title>cluster_approval</title>
<polygon fill="lightgrey" stroke="lightgrey" points="8,-79 8,-169 430,-169 430,-79 8,-79"/>
<text text-anchor="start" x="16" y="-153.8" font-family="Times,serif" font-size="14.00">Secondary Checkers</text>
<text text-anchor="start" x="40" y="-138.8" font-family="Times,serif" font-size="14.00">(subset of all)</text>
</g>
<!-- v1 -->
<g id="node1" class="node">
<title>v1</title>
<ellipse fill="white" stroke="white" cx="200" cy="-630.25" rx="61.99" ry="18"/>
<text text-anchor="middle" x="200" y="-626.55" font-family="Times,serif" font-size="14.00">Validator 1</text>
</g>
<!-- v2 -->
<g id="node2" class="node">
<title>v2</title>
<ellipse fill="white" stroke="white" cx="78" cy="-543.25" rx="61.99" ry="18"/>
<text text-anchor="middle" x="78" y="-539.55" font-family="Times,serif" font-size="14.00">Validator 2</text>
</g>
<!-- v1&#45;&gt;v2 -->
<g id="edge1" class="edge">
<title>v1&#45;&gt;v2</title>
<path fill="none" stroke="black" d="M148.9,-620.02C131.72,-614.82 113.5,-606.75 100,-594.25 93.29,-588.05 88.52,-579.44 85.17,-571.11"/>
<polygon fill="black" stroke="black" points="88.46,-569.91 81.87,-561.62 81.85,-572.21 88.46,-569.91"/>
<text text-anchor="middle" x="147" y="-583.05" font-family="Times,serif" font-size="14.00">(2) Seconded</text>
</g>
<!-- v3 -->
<g id="node3" class="node">
<title>v3</title>
<ellipse fill="white" stroke="white" cx="219" cy="-543.25" rx="61.99" ry="18"/>
<text text-anchor="middle" x="219" y="-539.55" font-family="Times,serif" font-size="14.00">Validator 3</text>
</g>
<!-- v1&#45;&gt;v3 -->
<g id="edge2" class="edge">
<title>v1&#45;&gt;v3</title>
<path fill="none" stroke="black" d="M198.44,-611.87C198.04,-602.14 198.32,-589.86 201,-579.25 201.76,-576.24 202.82,-573.19 204.05,-570.21"/>
<polygon fill="black" stroke="black" points="207.26,-571.62 208.39,-561.08 200.94,-568.61 207.26,-571.62"/>
<text text-anchor="middle" x="248" y="-583.05" font-family="Times,serif" font-size="14.00">(2) Seconded</text>
</g>
<!-- b -->
<g id="node4" class="node">
<title>b</title>
<polygon fill="white" stroke="white" points="271.5,-488.25 166.5,-488.25 166.5,-452.25 271.5,-452.25 271.5,-488.25"/>
<text text-anchor="middle" x="219" y="-466.55" font-family="Times,serif" font-size="14.00">(3) Backable</text>
</g>
<!-- v1&#45;&gt;b -->
<g id="edge5" class="edge">
<title>v1&#45;&gt;b</title>
<path fill="none" stroke="black" stroke-dasharray="5,2" d="M254.13,-621.39C269.9,-616.3 285.45,-607.95 295,-594.25 303.03,-582.74 311.74,-564.45 290,-525.25 281.44,-509.82 266.42,-497.42 252.4,-488.42"/>
</g>
<!-- v2&#45;&gt;b -->
<g id="edge3" class="edge">
<title>v2&#45;&gt;b</title>
<path fill="none" stroke="black" stroke-dasharray="5,2" d="M107.56,-527.37C130.17,-515.99 161.38,-500.27 185.02,-488.37"/>
</g>
<!-- v3&#45;&gt;b -->
<g id="edge4" class="edge">
<title>v3&#45;&gt;b</title>
<path fill="none" stroke="black" stroke-dasharray="5,2" d="M219,-525.07C219,-513.9 219,-499.42 219,-488.28"/>
</g>
<!-- v4 -->
<g id="node5" class="node">
<title>v4</title>
<ellipse fill="none" stroke="black" cx="219" cy="-378.63" rx="138.69" ry="22.76"/>
<text text-anchor="start" x="129" y="-380.43" font-family="Times,serif" font-weight="bold" font-size="14.00">Validator 4</text>
<text text-anchor="start" x="215" y="-380.43" font-family="Times,serif" font-size="14.00"> (relay chain)</text>
<text text-anchor="start" x="169.5" y="-369.63" font-family="Times,serif" font-size="10.00">(selected by BABE)</text>
</g>
<!-- b&#45;&gt;v4 -->
<g id="edge6" class="edge">
<title>b&#45;&gt;v4</title>
<path fill="none" stroke="black" d="M219,-451.97C219,-440.46 219,-424.99 219,-411.31"/>
<polygon fill="black" stroke="black" points="222.5,-411.3 219,-401.3 215.5,-411.3 222.5,-411.3"/>
<text text-anchor="middle" x="257" y="-423.05" font-family="Times,serif" font-size="14.00">(4) Backed</text>
</g>
<!-- pa -->
<g id="node7" class="node">
<title>pa</title>
<polygon fill="none" stroke="black" points="359.5,-319 78.5,-319 78.5,-283 359.5,-283 359.5,-319"/>
<text text-anchor="middle" x="219" y="-297.3" font-family="Times,serif" font-size="14.00">(5) Relay Block (Pending Availability)</text>
</g>
<!-- v4&#45;&gt;pa -->
<g id="edge8" class="edge">
<title>v4&#45;&gt;pa</title>
<path fill="none" stroke="black" d="M219,-355.75C219,-347.44 219,-337.87 219,-329.13"/>
<polygon fill="black" stroke="black" points="222.5,-329.02 219,-319.02 215.5,-329.02 222.5,-329.02"/>
</g>
<!-- col -->
<g id="node6" class="node">
<title>col</title>
<ellipse fill="none" stroke="black" cx="200" cy="-753.25" rx="48.19" ry="18"/>
<text text-anchor="middle" x="200" y="-749.55" font-family="Times,serif" font-size="14.00">Collator</text>
</g>
<!-- col&#45;&gt;v1 -->
<g id="edge7" class="edge">
<title>col&#45;&gt;v1</title>
<path fill="none" stroke="black" d="M200,-735.18C200,-715.29 200,-682.18 200,-658.68"/>
<polygon fill="black" stroke="black" points="203.5,-658.64 200,-648.64 196.5,-658.64 203.5,-658.64"/>
<text text-anchor="middle" x="248.5" y="-706.05" font-family="Times,serif" font-size="14.00">(1) Candidate</text>
</g>
<!-- pb -->
<g id="node8" class="node">
<title>pb</title>
<polygon fill="none" stroke="black" points="262,-232 176,-232 176,-196 262,-196 262,-232"/>
<text text-anchor="middle" x="219" y="-210.3" font-family="Times,serif" font-size="14.00">Parablock</text>
</g>
<!-- pa&#45;&gt;pb -->
<g id="edge9" class="edge">
<title>pa&#45;&gt;pb</title>
<path fill="none" stroke="black" d="M219,-282.8C219,-268.05 219,-246.92 219,-232.18"/>
<text text-anchor="middle" x="300.5" y="-253.8" font-family="Times,serif" font-size="14.00">(6) a few blocks later...</text>
</g>
<!-- a5 -->
<g id="node10" class="node">
<title>a5</title>
<ellipse fill="white" stroke="white" cx="78" cy="-105" rx="61.99" ry="18"/>
<text text-anchor="middle" x="78" y="-101.3" font-family="Times,serif" font-size="14.00">Validator 5</text>
</g>
<!-- pb&#45;&gt;a5 -->
<g id="edge10" class="edge">
<title>pb&#45;&gt;a5</title>
<path fill="none" stroke="black" d="M188.86,-195.94C175.93,-188.22 160.87,-178.66 148,-169 131.82,-156.86 114.93,-141.74 101.8,-129.35"/>
<polygon fill="black" stroke="black" points="104.18,-126.79 94.53,-122.42 99.35,-131.86 104.18,-126.79"/>
</g>
<!-- a6 -->
<g id="node11" class="node">
<title>a6</title>
<ellipse fill="white" stroke="white" cx="219" cy="-105" rx="61.99" ry="18"/>
<text text-anchor="middle" x="219" y="-101.3" font-family="Times,serif" font-size="14.00">Validator 6</text>
</g>
<!-- pb&#45;&gt;a6 -->
<g id="edge11" class="edge">
<title>pb&#45;&gt;a6</title>
<path fill="none" stroke="black" d="M219,-195.81C219,-178.96 219,-153.02 219,-133.34"/>
<polygon fill="black" stroke="black" points="222.5,-133.15 219,-123.15 215.5,-133.15 222.5,-133.15"/>
</g>
<!-- a7 -->
<g id="node12" class="node">
<title>a7</title>
<ellipse fill="white" stroke="white" cx="360" cy="-105" rx="61.99" ry="18"/>
<text text-anchor="middle" x="360" y="-101.3" font-family="Times,serif" font-size="14.00">Validator 7</text>
</g>
<!-- pb&#45;&gt;a7 -->
<g id="edge12" class="edge">
<title>pb&#45;&gt;a7</title>
<path fill="none" stroke="black" d="M249.14,-195.94C262.07,-188.22 277.13,-178.66 290,-169 306.18,-156.86 323.07,-141.74 336.2,-129.35"/>
<polygon fill="black" stroke="black" points="338.65,-131.86 343.47,-122.42 333.82,-126.79 338.65,-131.86"/>
</g>
<!-- rc -->
<g id="node9" class="node">
<title>rc</title>
<ellipse fill="none" stroke="black" cx="219" cy="-18" rx="116.18" ry="18"/>
<text text-anchor="middle" x="219" y="-14.3" font-family="Times,serif" font-size="14.00">Relay Chain Validators</text>
</g>
<!-- a5&#45;&gt;rc -->
<g id="edge13" class="edge">
<title>a5&#45;&gt;rc</title>
<path fill="none" stroke="black" d="M89.37,-87.17C97.4,-76.41 109,-62.85 122,-54 131.56,-47.49 142.47,-42.04 153.44,-37.53"/>
<polygon fill="black" stroke="black" points="155,-40.68 163.06,-33.8 152.47,-34.15 155,-40.68"/>
<text text-anchor="middle" x="168.5" y="-57.8" font-family="Times,serif" font-size="14.00">(7) Approved</text>
</g>
<!-- a6&#45;&gt;rc -->
<g id="edge14" class="edge">
<title>a6&#45;&gt;rc</title>
<path fill="none" stroke="black" d="M219,-86.8C219,-75.16 219,-59.55 219,-46.24"/>
<polygon fill="black" stroke="black" points="222.5,-46.18 219,-36.18 215.5,-46.18 222.5,-46.18"/>
<text text-anchor="middle" x="265.5" y="-57.8" font-family="Times,serif" font-size="14.00">(7) Approved</text>
</g>
<!-- a7&#45;&gt;rc -->
<g id="edge15" class="edge">
<title>a7&#45;&gt;rc</title>
<path fill="none" stroke="black" d="M348.63,-87.17C340.6,-76.41 329,-62.85 316,-54 306.44,-47.49 295.53,-42.04 284.56,-37.53"/>
<polygon fill="black" stroke="black" points="285.53,-34.15 274.94,-33.8 283,-40.68 285.53,-34.15"/>
<text text-anchor="middle" x="378.5" y="-57.8" font-family="Times,serif" font-size="14.00">(7) Approved</text>
</g>
</g>
</svg>
