<?xml version="1.0" encoding="UTF-8" standalone="no"?>
<!DOCTYPE svg PUBLIC "-//W3C//DTD SVG 1.1//EN"
 "http://www.w3.org/Graphics/SVG/1.1/DTD/svg11.dtd">
<!-- Generated by graphviz version 2.43.0 (0)
 -->
<!-- Title: %3 Pages: 1 -->
<svg width="326pt" height="104pt"
 viewBox="0.00 0.00 325.50 104.22" xmlns="http://www.w3.org/2000/svg" xmlns:xlink="http://www.w3.org/1999/xlink">
<g id="graph0" class="graph" transform="scale(1 1) rotate(0) translate(4 100.22)">
<title>%3</title>
<polygon fill="white" stroke="transparent" points="-4,4 -4,-100.22 321.5,-100.22 321.5,4 -4,4"/>
<text text-anchor="middle" x="158.75" y="-81.02" font-family="Times,serif" font-size="14.00">Availability Core State Machine</text>
<!-- vg1 -->
<g id="node1" class="node">
<title>vg1</title>
<polygon fill="none" stroke="black" points="54,-41.22 0,-41.22 0,-5.22 54,-5.22 54,-41.22"/>
<text text-anchor="middle" x="27" y="-19.52" font-family="Times,serif" font-size="14.00">Free</text>
</g>
<!-- vg2 -->
<g id="node2" class="node">
<title>vg2</title>
<polygon fill="none" stroke="black" points="317.5,-41.22 234.5,-41.22 234.5,-5.22 317.5,-5.22 317.5,-41.22"/>
<text text-anchor="middle" x="276" y="-19.52" font-family="Times,serif" font-size="14.00">Occupied</text>
</g>
<!-- vg1&#45;&gt;vg2 -->
<g id="edge1" class="edge">
<title>vg1&#45;&gt;vg2</title>
<path fill="none" stroke="black" d="M54.12,-23.22C94.8,-23.22 172.37,-23.22 224.15,-23.22"/>
<polygon fill="black" stroke="black" points="224.46,-26.72 234.46,-23.22 224.46,-19.72 224.46,-26.72"/>
<text text-anchor="middle" x="144.25" y="-30.02" font-family="Times,serif" font-size="14.00">Assignment &amp; Backing</text>
</g>
<!-- vg2&#45;&gt;vg1 -->
<g id="edge2" class="edge">
<title>vg2&#45;&gt;vg1</title>
<path fill="none" stroke="black" d="M234.34,-7.08C231.46,-6.34 228.58,-5.71 225.75,-5.22 192.57,0.55 110.66,2.83 64.14,-5.78"/>
<polygon fill="black" stroke="black" points="63.26,-2.39 54.23,-7.92 64.74,-9.23 63.26,-2.39"/>
<text text-anchor="middle" x="144.25" y="-9.02" font-family="Times,serif" font-size="14.00">Availability or Timeout</text>
</g>
</g>
</svg>
