<?xml version="1.0" encoding="UTF-8" standalone="no"?>
<!DOCTYPE svg PUBLIC "-//W3C//DTD SVG 1.1//EN"
 "http://www.w3.org/Graphics/SVG/1.1/DTD/svg11.dtd">
<!-- Generated by graphviz version 2.43.0 (0)
 -->
<!-- Title: %3 Pages: 1 -->
<svg width="563pt" height="305pt"
 viewBox="0.00 0.00 563.00 305.00" xmlns="http://www.w3.org/2000/svg" xmlns:xlink="http://www.w3.org/1999/xlink">
<g id="graph0" class="graph" transform="scale(1 1) rotate(0) translate(4 301)">
<title>%3</title>
<polygon fill="white" stroke="transparent" points="-4,4 -4,-301 559,-301 559,4 -4,4"/>
<text text-anchor="middle" x="277.5" y="-281.8" font-family="Times,serif" font-size="14.00">Availability Core Transitions within Block</text>
<g id="clust1" class="cluster">
<title>cluster_left</title>
<polygon fill="none" stroke="black" points="8,-95 8,-234 205,-234 205,-95 8,-95"/>
</g>
<g id="clust3" class="cluster">
<title>cluster_right</title>
<polygon fill="none" stroke="black" points="213,-8 213,-234 540,-234 540,-8 213,-8"/>
</g>
<!-- fr1 -->
<g id="node1" class="node">
<title>fr1</title>
<polygon fill="none" stroke="black" points="118,-226 64,-226 64,-190 118,-190 118,-226"/>
<text text-anchor="middle" x="91" y="-204.3" font-family="Times,serif" font-size="14.00">Free</text>
</g>
<!-- fr2 -->
<g id="node2" class="node">
<title>fr2</title>
<polygon fill="none" stroke="black" points="70,-139 16,-139 16,-103 70,-103 70,-139"/>
<text text-anchor="middle" x="43" y="-117.3" font-family="Times,serif" font-size="14.00">Free</text>
</g>
<!-- fr1&#45;&gt;fr2 -->
<g id="edge1" class="edge">
<title>fr1&#45;&gt;fr2</title>
<path fill="none" stroke="black" d="M81.29,-189.8C74.52,-177.82 65.37,-161.62 57.71,-148.06"/>
<polygon fill="black" stroke="black" points="60.66,-146.16 52.7,-139.18 54.57,-149.6 60.66,-146.16"/>
<text text-anchor="middle" x="76" y="-160.8" font-family="Times,serif" font-size="14.00">No Backing</text>
</g>
<!-- occ -->
<g id="node3" class="node">
<title>occ</title>
<polygon fill="none" stroke="black" points="180.5,-139 97.5,-139 97.5,-103 180.5,-103 180.5,-139"/>
<text text-anchor="middle" x="139" y="-117.3" font-family="Times,serif" font-size="14.00">Occupied</text>
</g>
<!-- fr1&#45;&gt;occ -->
<g id="edge2" class="edge">
<title>fr1&#45;&gt;occ</title>
<path fill="none" stroke="black" d="M100.71,-189.8C107.48,-177.82 116.63,-161.62 124.29,-148.06"/>
<polygon fill="black" stroke="black" points="127.43,-149.6 129.3,-139.18 121.34,-146.16 127.43,-149.6"/>
<text text-anchor="middle" x="152" y="-160.8" font-family="Times,serif" font-size="14.00">Backing</text>
</g>
<!-- occ2 -->
<g id="node4" class="node">
<title>occ2</title>
<polygon fill="none" stroke="black" points="367.5,-226 284.5,-226 284.5,-190 367.5,-190 367.5,-226"/>
<text text-anchor="middle" x="326" y="-204.3" font-family="Times,serif" font-size="14.00">Occupied</text>
</g>
<!-- fr3 -->
<g id="node5" class="node">
<title>fr3</title>
<polygon fill="none" stroke="black" points="520,-139 466,-139 466,-103 520,-103 520,-139"/>
<text text-anchor="middle" x="493" y="-117.3" font-family="Times,serif" font-size="14.00">Free</text>
</g>
<!-- occ2&#45;&gt;fr3 -->
<g id="edge3" class="edge">
<title>occ2&#45;&gt;fr3</title>
<path fill="none" stroke="black" d="M359.79,-189.8C388,-175.44 428.11,-155.03 456.93,-140.36"/>
<polygon fill="black" stroke="black" points="458.54,-143.47 465.87,-135.81 455.37,-137.23 458.54,-143.47"/>
<text text-anchor="middle" x="471.5" y="-160.8" font-family="Times,serif" font-size="14.00">Availability</text>
</g>
<!-- occ3 -->
<g id="node7" class="node">
<title>occ3</title>
<polygon fill="none" stroke="black" points="304.5,-139 221.5,-139 221.5,-103 304.5,-103 304.5,-139"/>
<text text-anchor="middle" x="263" y="-117.3" font-family="Times,serif" font-size="14.00">Occupied</text>
</g>
<!-- occ2&#45;&gt;occ3 -->
<g id="edge4" class="edge">
<title>occ2&#45;&gt;occ3</title>
<path fill="none" stroke="black" d="M313.25,-189.8C304.2,-177.59 291.9,-160.99 281.74,-147.28"/>
<polygon fill="black" stroke="black" points="284.5,-145.13 275.73,-139.18 278.87,-149.29 284.5,-145.13"/>
<text text-anchor="middle" x="350" y="-160.8" font-family="Times,serif" font-size="14.00">No availability</text>
</g>
<!-- fr4 -->
<g id="node6" class="node">
<title>fr4</title>
<polygon fill="none" stroke="black" points="478,-52 424,-52 424,-16 478,-16 478,-52"/>
<text text-anchor="middle" x="451" y="-30.3" font-family="Times,serif" font-size="14.00">Free</text>
</g>
<!-- fr3&#45;&gt;fr4 -->
<g id="edge5" class="edge">
<title>fr3&#45;&gt;fr4</title>
<path fill="none" stroke="black" d="M484.5,-102.8C478.64,-90.93 470.73,-74.93 464.07,-61.45"/>
<polygon fill="black" stroke="black" points="467.05,-59.59 459.49,-52.18 460.78,-62.69 467.05,-59.59"/>
<text text-anchor="middle" x="514.5" y="-73.8" font-family="Times,serif" font-size="14.00">No backing</text>
</g>
<!-- occ4 -->
<g id="node8" class="node">
<title>occ4</title>
<polygon fill="none" stroke="black" points="304.5,-52 221.5,-52 221.5,-16 304.5,-16 304.5,-52"/>
<text text-anchor="middle" x="263" y="-30.3" font-family="Times,serif" font-size="14.00">Occupied</text>
</g>
<!-- fr3&#45;&gt;occ4 -->
<g id="edge6" class="edge">
<title>fr3&#45;&gt;occ4</title>
<path fill="none" stroke="black" d="M465.71,-109.92C428.5,-96.16 361.11,-71.26 314.3,-53.96"/>
<polygon fill="black" stroke="black" points="315.23,-50.57 304.64,-50.39 312.8,-57.14 315.23,-50.57"/>
<text text-anchor="middle" x="420" y="-73.8" font-family="Times,serif" font-size="14.00">Backing</text>
</g>
<!-- occ3&#45;&gt;fr3 -->
<g id="edge8" class="edge">
<title>occ3&#45;&gt;fr3</title>
<path fill="none" stroke="black" d="M304.65,-121C347.64,-121 414.1,-121 455.5,-121"/>
<polygon fill="black" stroke="black" points="455.71,-124.5 465.71,-121 455.71,-117.5 455.71,-124.5"/>
<text text-anchor="middle" x="385.25" y="-127.8" font-family="Times,serif" font-size="14.00">Availability Timeout</text>
</g>
<!-- occ3&#45;&gt;occ4 -->
<g id="edge7" class="edge">
<title>occ3&#45;&gt;occ4</title>
<path fill="none" stroke="black" d="M263,-102.8C263,-91.16 263,-75.55 263,-62.24"/>
<polygon fill="black" stroke="black" points="266.5,-62.18 263,-52.18 259.5,-62.18 266.5,-62.18"/>
<text text-anchor="middle" x="305" y="-73.8" font-family="Times,serif" font-size="14.00">(no change)</text>
</g>
</g>
</svg>
