<?xml version="1.0" encoding="UTF-8" standalone="no"?>
<!DOCTYPE svg PUBLIC "-//W3C//DTD SVG 1.1//EN"
 "http://www.w3.org/Graphics/SVG/1.1/DTD/svg11.dtd">
<!-- Generated by graphviz version 2.43.0 (0)
 -->
<!-- Title: %3 Pages: 1 -->
<svg width="764pt" height="225pt"
 viewBox="0.00 0.00 763.87 225.49" xmlns="http://www.w3.org/2000/svg" xmlns:xlink="http://www.w3.org/1999/xlink">
<g id="graph0" class="graph" transform="scale(1 1) rotate(0) translate(4 221.49)">
<title>%3</title>
<polygon fill="white" stroke="transparent" points="-4,4 -4,-221.49 759.87,-221.49 759.87,4 -4,4"/>
<text text-anchor="middle" x="377.93" y="-202.29" font-family="Times,serif" font-size="14.00">Block life FSM</text>
<!-- st -->
<g id="node1" class="node">
<title>st</title>
<ellipse fill="none" stroke="black" cx="42.25" cy="-44.2" rx="42.49" ry="42.49"/>
<text text-anchor="middle" x="42.25" y="-40.5" font-family="Times,serif" font-size="14.00">Stored</text>
</g>
<!-- inc -->
<g id="node2" class="node">
<title>inc</title>
<ellipse fill="none" stroke="black" cx="232.19" cy="-108.2" rx="50.89" ry="50.89"/>
<text text-anchor="middle" x="232.19" y="-104.5" font-family="Times,serif" font-size="14.00">Included</text>
</g>
<!-- st&#45;&gt;inc -->
<g id="edge1" class="edge">
<title>st&#45;&gt;inc</title>
<path fill="none" stroke="black" d="M82.65,-57.61C109.14,-66.64 144.5,-78.68 174.07,-88.75"/>
<polygon fill="black" stroke="black" points="173.26,-92.17 183.86,-92.08 175.52,-85.54 173.26,-92.17"/>
<text text-anchor="middle" x="132.99" y="-102" font-family="Times,serif" font-size="14.00">Block</text>
<text text-anchor="middle" x="132.99" y="-87" font-family="Times,serif" font-size="14.00">included</text>
</g>
<!-- prn -->
<g id="node4" class="node">
<title>prn</title>
<ellipse fill="none" stroke="black" cx="711.67" cy="-44.2" rx="44.39" ry="44.39"/>
<text text-anchor="middle" x="711.67" y="-40.5" font-family="Times,serif" font-size="14.00">Pruned</text>
</g>
<!-- st&#45;&gt;prn -->
<g id="edge2" class="edge">
<title>st&#45;&gt;prn</title>
<path fill="none" stroke="black" d="M84.49,-44.2C200.16,-44.2 527.58,-44.2 657.04,-44.2"/>
<polygon fill="black" stroke="black" points="657.11,-47.7 667.11,-44.2 657.11,-40.7 657.11,-47.7"/>
<text text-anchor="middle" x="346.38" y="-63" font-family="Times,serif" font-size="14.00">Stored block</text>
<text text-anchor="middle" x="346.38" y="-48" font-family="Times,serif" font-size="14.00">timed out</text>
</g>
<!-- fin -->
<g id="node3" class="node">
<title>fin</title>
<ellipse fill="none" stroke="black" cx="463.18" cy="-109.2" rx="53.09" ry="53.09"/>
<text text-anchor="middle" x="463.18" y="-105.5" font-family="Times,serif" font-size="14.00">Finalized</text>
</g>
<!-- inc&#45;&gt;fin -->
<g id="edge3" class="edge">
<title>inc&#45;&gt;fin</title>
<path fill="none" stroke="black" d="M283.16,-108.41C317.32,-108.56 362.86,-108.76 399.46,-108.92"/>
<polygon fill="black" stroke="black" points="399.51,-112.42 409.53,-108.97 399.54,-105.42 399.51,-112.42"/>
<text text-anchor="middle" x="346.38" y="-127" font-family="Times,serif" font-size="14.00">Block</text>
<text text-anchor="middle" x="346.38" y="-112" font-family="Times,serif" font-size="14.00">finalized</text>
</g>
<!-- fin&#45;&gt;prn -->
<g id="edge4" class="edge">
<title>fin&#45;&gt;prn</title>
<path fill="none" stroke="black" d="M514.95,-95.81C556.97,-84.73 616.4,-69.05 658.73,-57.89"/>
<polygon fill="black" stroke="black" points="659.79,-61.23 668.56,-55.3 658,-54.46 659.79,-61.23"/>
<text text-anchor="middle" x="591.97" y="-108" font-family="Times,serif" font-size="14.00">Block keep time</text>
<text text-anchor="middle" x="591.97" y="-93" font-family="Times,serif" font-size="14.00">(1 day) elapsed</text>
</g>
</g>
</svg>
