<?xml version="1.0" encoding="UTF-8" standalone="no"?>
<!DOCTYPE svg PUBLIC "-//W3C//DTD SVG 1.1//EN"
 "http://www.w3.org/Graphics/SVG/1.1/DTD/svg11.dtd">
<!-- Generated by graphviz version 2.43.0 (0)
 -->
<!-- Title: %3 Pages: 1 -->
<svg width="833pt" height="265pt"
 viewBox="0.00 0.00 833.30 264.92" xmlns="http://www.w3.org/2000/svg" xmlns:xlink="http://www.w3.org/1999/xlink">
<g id="graph0" class="graph" transform="scale(1 1) rotate(0) translate(4 260.92)">
<title>%3</title>
<polygon fill="white" stroke="transparent" points="-4,4 -4,-260.92 829.3,-260.92 829.3,4 -4,4"/>
<text text-anchor="middle" x="412.65" y="-241.72" font-family="Times,serif" font-size="14.00">Chunk life FSM</text>
<!-- chst -->
<g id="node1" class="node">
<title>chst</title>
<ellipse fill="none" stroke="black" cx="45.96" cy="-155.96" rx="45.92" ry="45.92"/>
<text text-anchor="middle" x="45.96" y="-159.76" font-family="Times,serif" font-size="14.00">Chunk</text>
<text text-anchor="middle" x="45.96" y="-144.76" font-family="Times,serif" font-size="14.00">Stored</text>
</g>
<!-- inc -->
<g id="node3" class="node">
<title>inc</title>
<ellipse fill="none" stroke="black" cx="239.62" cy="-126.96" rx="50.89" ry="50.89"/>
<text text-anchor="middle" x="239.62" y="-123.26" font-family="Times,serif" font-size="14.00">Included</text>
</g>
<!-- chst&#45;&gt;inc -->
<g id="edge1" class="edge">
<title>chst&#45;&gt;inc</title>
<path fill="none" stroke="black" d="M91.9,-149.16C117.91,-145.23 150.98,-140.22 179.13,-135.96"/>
<polygon fill="black" stroke="black" points="179.89,-139.39 189.26,-134.43 178.84,-132.47 179.89,-139.39"/>
<text text-anchor="middle" x="140.42" y="-163.76" font-family="Times,serif" font-size="14.00">Block</text>
<text text-anchor="middle" x="140.42" y="-148.76" font-family="Times,serif" font-size="14.00">included</text>
</g>
<!-- st -->
<g id="node2" class="node">
<title>st</title>
<ellipse fill="none" stroke="black" cx="45.96" cy="-45.96" rx="45.92" ry="45.92"/>
<text text-anchor="middle" x="45.96" y="-49.76" font-family="Times,serif" font-size="14.00">Block</text>
<text text-anchor="middle" x="45.96" y="-34.76" font-family="Times,serif" font-size="14.00">Stored</text>
</g>
<!-- st&#45;&gt;inc -->
<g id="edge2" class="edge">
<title>st&#45;&gt;inc</title>
<path fill="none" stroke="black" d="M88.55,-63.54C116.27,-75.25 153.01,-90.78 183.2,-103.54"/>
<polygon fill="black" stroke="black" points="182.18,-106.91 192.75,-107.58 184.9,-100.46 182.18,-106.91"/>
<text text-anchor="middle" x="140.42" y="-114.76" font-family="Times,serif" font-size="14.00">Block</text>
<text text-anchor="middle" x="140.42" y="-99.76" font-family="Times,serif" font-size="14.00">included</text>
</g>
<!-- prn -->
<g id="node5" class="node">
<title>prn</title>
<ellipse fill="none" stroke="black" cx="781.1" cy="-61.96" rx="44.39" ry="44.39"/>
<text text-anchor="middle" x="781.1" y="-58.26" font-family="Times,serif" font-size="14.00">Pruned</text>
</g>
<!-- st&#45;&gt;prn -->
<g id="edge3" class="edge">
<title>st&#45;&gt;prn</title>
<path fill="none" stroke="black" d="M91.99,-46.94C220.43,-49.75 588.16,-57.77 726.56,-60.79"/>
<polygon fill="black" stroke="black" points="726.83,-64.3 736.9,-61.02 726.98,-57.3 726.83,-64.3"/>
<text text-anchor="middle" x="353.81" y="-72.76" font-family="Times,serif" font-size="14.00">Stored block</text>
<text text-anchor="middle" x="353.81" y="-57.76" font-family="Times,serif" font-size="14.00">timed out</text>
</g>
<!-- fin -->
<g id="node4" class="node">
<title>fin</title>
<ellipse fill="none" stroke="black" cx="470.61" cy="-126.96" rx="53.09" ry="53.09"/>
<text text-anchor="middle" x="470.61" y="-123.26" font-family="Times,serif" font-size="14.00">Finalized</text>
</g>
<!-- inc&#45;&gt;fin -->
<g id="edge4" class="edge">
<title>inc&#45;&gt;fin</title>
<path fill="none" stroke="black" d="M290.59,-126.96C324.75,-126.96 370.29,-126.96 406.89,-126.96"/>
<polygon fill="black" stroke="black" points="406.96,-130.46 416.96,-126.96 406.96,-123.46 406.96,-130.46"/>
<text text-anchor="middle" x="353.81" y="-145.76" font-family="Times,serif" font-size="14.00">Block</text>
<text text-anchor="middle" x="353.81" y="-130.76" font-family="Times,serif" font-size="14.00">finalized</text>
</g>
<!-- fin&#45;&gt;prn -->
<g id="edge5" class="edge">
<title>fin&#45;&gt;prn</title>
<path fill="none" stroke="black" d="M522.9,-116.16C579.63,-104.2 670.56,-85.04 727.72,-73"/>
<polygon fill="black" stroke="black" points="728.57,-76.4 737.64,-70.91 727.13,-69.55 728.57,-76.4"/>
<text text-anchor="middle" x="630.41" y="-129.76" font-family="Times,serif" font-size="14.00">Block keep time</text>
<text text-anchor="middle" x="630.41" y="-114.76" font-family="Times,serif" font-size="14.00">(1 day + 1 hour) elapsed</text>
</g>
</g>
</svg>
