<?xml version="1.0" encoding="UTF-8" standalone="no"?>
<!DOCTYPE svg PUBLIC "-//W3C//DTD SVG 1.1//EN"
 "http://www.w3.org/Graphics/SVG/1.1/DTD/svg11.dtd">
<!-- Generated by graphviz version 2.43.0 (0)
 -->
<!-- Title: %3 Pages: 1 -->
<svg width="893pt" height="225pt"
 viewBox="0.00 0.00 892.87 225.49" xmlns="http://www.w3.org/2000/svg" xmlns:xlink="http://www.w3.org/1999/xlink">
<g id="graph0" class="graph" transform="scale(1 1) rotate(0) translate(4 221.49)">
<title>%3</title>
<polygon fill="white" stroke="transparent" points="-4,4 -4,-221.49 888.87,-221.49 888.87,4 -4,4"/>
<text text-anchor="middle" x="442.43" y="-202.29" font-family="Times,serif" font-size="14.00">Block data FSM</text>
<!-- st -->
<g id="node1" class="node">
<title>st</title>
<ellipse fill="none" stroke="black" cx="42.25" cy="-61.2" rx="42.49" ry="42.49"/>
<text text-anchor="middle" x="42.25" y="-57.5" font-family="Times,serif" font-size="14.00">Stored</text>
</g>
<!-- inc -->
<g id="node2" class="node">
<title>inc</title>
<ellipse fill="none" stroke="black" cx="299.19" cy="-109.2" rx="50.89" ry="50.89"/>
<text text-anchor="middle" x="299.19" y="-105.5" font-family="Times,serif" font-size="14.00">Included</text>
</g>
<!-- st&#45;&gt;inc -->
<g id="edge1" class="edge">
<title>st&#45;&gt;inc</title>
<path fill="none" stroke="black" d="M78.95,-82.74C86.5,-86.47 94.58,-89.88 102.49,-92.2 146.66,-105.11 198.64,-109.13 237.92,-110.05"/>
<polygon fill="black" stroke="black" points="238.08,-113.55 248.14,-110.22 238.2,-106.55 238.08,-113.55"/>
<text text-anchor="middle" x="166.49" y="-128" font-family="Times,serif" font-size="14.00">Block</text>
<text text-anchor="middle" x="166.49" y="-113" font-family="Times,serif" font-size="14.00">included</text>
</g>
<!-- prn -->
<g id="node4" class="node">
<title>prn</title>
<ellipse fill="none" stroke="black" cx="840.67" cy="-44.2" rx="44.39" ry="44.39"/>
<text text-anchor="middle" x="840.67" y="-40.5" font-family="Times,serif" font-size="14.00">Pruned</text>
</g>
<!-- st&#45;&gt;prn -->
<g id="edge2" class="edge">
<title>st&#45;&gt;prn</title>
<path fill="none" stroke="black" d="M82.39,-47.54C89.03,-45.74 95.9,-44.18 102.49,-43.2 158.76,-34.84 173.6,-43.15 230.49,-43.2 435.96,-43.36 680.42,-43.85 786.35,-44.08"/>
<polygon fill="black" stroke="black" points="786.45,-47.58 796.46,-44.1 786.47,-40.58 786.45,-47.58"/>
<text text-anchor="middle" x="413.38" y="-62" font-family="Times,serif" font-size="14.00">Stored block</text>
<text text-anchor="middle" x="413.38" y="-47" font-family="Times,serif" font-size="14.00">timed out</text>
</g>
<!-- inc&#45;&gt;st -->
<g id="edge4" class="edge">
<title>inc&#45;&gt;st</title>
<path fill="none" stroke="black" d="M261.66,-75.06C252.18,-68.15 241.52,-61.88 230.49,-58.2 186.06,-43.33 132.31,-46.15 93.81,-51.46"/>
<polygon fill="black" stroke="black" points="93.26,-48 83.88,-52.93 94.28,-54.93 93.26,-48"/>
<text text-anchor="middle" x="166.49" y="-77" font-family="Times,serif" font-size="14.00">Competing blocks</text>
<text text-anchor="middle" x="166.49" y="-62" font-family="Times,serif" font-size="14.00">finalized</text>
</g>
<!-- fin -->
<g id="node3" class="node">
<title>fin</title>
<ellipse fill="none" stroke="black" cx="530.18" cy="-109.2" rx="53.09" ry="53.09"/>
<text text-anchor="middle" x="530.18" y="-105.5" font-family="Times,serif" font-size="14.00">Finalized</text>
</g>
<!-- inc&#45;&gt;fin -->
<g id="edge3" class="edge">
<title>inc&#45;&gt;fin</title>
<path fill="none" stroke="black" d="M350.16,-109.2C384.32,-109.2 429.86,-109.2 466.46,-109.2"/>
<polygon fill="black" stroke="black" points="466.53,-112.7 476.53,-109.2 466.53,-105.7 466.53,-112.7"/>
<text text-anchor="middle" x="413.38" y="-128" font-family="Times,serif" font-size="14.00">Block</text>
<text text-anchor="middle" x="413.38" y="-113" font-family="Times,serif" font-size="14.00">finalized</text>
</g>
<!-- fin&#45;&gt;prn -->
<g id="edge5" class="edge">
<title>fin&#45;&gt;prn</title>
<path fill="none" stroke="black" d="M582.47,-98.39C639.2,-86.44 730.12,-67.28 787.29,-55.23"/>
<polygon fill="black" stroke="black" points="788.14,-58.63 797.21,-53.14 786.7,-51.78 788.14,-58.63"/>
<text text-anchor="middle" x="689.97" y="-112" font-family="Times,serif" font-size="14.00">Block keep time</text>
<text text-anchor="middle" x="689.97" y="-97" font-family="Times,serif" font-size="14.00">(1 day + 1 hour) elapsed</text>
</g>
</g>
</svg>
