<?xml version="1.0" encoding="UTF-8" standalone="no"?>
<!DOCTYPE svg PUBLIC "-//W3C//DTD SVG 1.1//EN"
 "http://www.w3.org/Graphics/SVG/1.1/DTD/svg11.dtd">
<!-- Generated by graphviz version 2.43.0 (0)
 -->
<!-- Title: %3 Pages: 1 -->
<svg width="919pt" height="508pt"
 viewBox="0.00 0.00 919.00 508.00" xmlns="http://www.w3.org/2000/svg" xmlns:xlink="http://www.w3.org/1999/xlink">
<g id="graph0" class="graph" transform="scale(1 1) rotate(0) translate(4 504)">
<title>%3</title>
<polygon fill="white" stroke="transparent" points="-4,4 -4,-504 915,-504 915,4 -4,4"/>
<!-- HeadData -->
<g id="node1" class="node">
<title>HeadData</title>
<text text-anchor="start" x="694" y="-367.3" font-family="Times,serif" font-size="14.00">HeadData</text>
<polygon fill="none" stroke="black" points="684.5,-338.5 684.5,-359.5 700.5,-359.5 700.5,-338.5 684.5,-338.5"/>
<text text-anchor="start" x="687.5" y="-345.3" font-family="Times,serif" font-size="14.00">0</text>
<polygon fill="none" stroke="black" points="702.5,-338.5 702.5,-359.5 775.5,-359.5 775.5,-338.5 702.5,-338.5"/>
<text text-anchor="start" x="705.5" y="-345.3" font-family="Times,serif" font-size="14.00">Vec&lt;u8&gt;</text>
<polygon fill="none" stroke="black" points="681,-335.5 681,-383.5 778,-383.5 778,-335.5 681,-335.5"/>
</g>
<!-- ValidationCode -->
<g id="node2" class="node">
<title>ValidationCode</title>
<text text-anchor="start" x="675.5" y="-296.3" font-family="Times,serif" font-size="14.00">ValidationCode</text>
<polygon fill="none" stroke="black" points="672.5,-267.5 672.5,-288.5 699.5,-288.5 699.5,-267.5 672.5,-267.5"/>
<text text-anchor="start" x="681" y="-274.3" font-family="Times,serif" font-size="14.00">0</text>
<polygon fill="none" stroke="black" points="701.5,-267.5 701.5,-288.5 786.5,-288.5 786.5,-267.5 701.5,-267.5"/>
<text text-anchor="start" x="710.5" y="-274.3" font-family="Times,serif" font-size="14.00">Vec&lt;u8&gt;</text>
<polygon fill="none" stroke="black" points="669.5,-264.5 669.5,-312.5 789.5,-312.5 789.5,-264.5 669.5,-264.5"/>
</g>
<!-- BlockData -->
<g id="node3" class="node">
<title>BlockData</title>
<text text-anchor="start" x="693.5" y="-438.3" font-family="Times,serif" font-size="14.00">BlockData</text>
<polygon fill="none" stroke="black" points="684.5,-409.5 684.5,-430.5 700.5,-430.5 700.5,-409.5 684.5,-409.5"/>
<text text-anchor="start" x="687.5" y="-416.3" font-family="Times,serif" font-size="14.00">0</text>
<polygon fill="none" stroke="black" points="702.5,-409.5 702.5,-430.5 775.5,-430.5 775.5,-409.5 702.5,-409.5"/>
<text text-anchor="start" x="705.5" y="-416.3" font-family="Times,serif" font-size="14.00">Vec&lt;u8&gt;</text>
<polygon fill="none" stroke="black" points="681,-406.5 681,-454.5 778,-454.5 778,-406.5 681,-406.5"/>
</g>
<!-- Id -->
<g id="node4" class="node">
<title>Id</title>
<text text-anchor="start" x="722" y="-98.3" font-family="Times,serif" font-size="14.00">Id</text>
<polygon fill="none" stroke="black" points="703.5,-69.5 703.5,-90.5 719.5,-90.5 719.5,-69.5 703.5,-69.5"/>
<text text-anchor="start" x="706.5" y="-76.3" font-family="Times,serif" font-size="14.00">0</text>
<polygon fill="none" stroke="black" points="721.5,-69.5 721.5,-90.5 755.5,-90.5 755.5,-69.5 721.5,-69.5"/>
<text text-anchor="start" x="724.5" y="-76.3" font-family="Times,serif" font-size="14.00">u32</text>
<polygon fill="none" stroke="black" points="700.5,-66.5 700.5,-114.5 758.5,-114.5 758.5,-66.5 700.5,-66.5"/>
</g>
<!-- Sibling -->
<g id="node5" class="node">
<title>Sibling</title>
<text text-anchor="start" x="231" y="-121.3" font-family="Times,serif" font-size="14.00">Sibling</text>
<polygon fill="none" stroke="black" points="228,-92.5 228,-113.5 253,-113.5 253,-92.5 228,-92.5"/>
<text text-anchor="start" x="235.5" y="-99.3" font-family="Times,serif" font-size="14.00">0</text>
<polygon fill="none" stroke="black" points="255,-92.5 255,-113.5 285,-113.5 285,-92.5 255,-92.5"/>
<text text-anchor="start" x="262.5" y="-99.3" font-family="Times,serif" font-size="14.00">Id</text>
<polygon fill="none" stroke="black" points="224.5,-89.5 224.5,-137.5 287.5,-137.5 287.5,-89.5 224.5,-89.5"/>
</g>
<!-- Sibling&#45;&gt;Id -->
<g id="edge1" class="edge">
<title>Sibling:0&#45;&gt;Id:name</title>
<path fill="none" stroke="black" d="M286,-102.5C467.68,-102.5 515.62,-102.5 692.34,-102.5"/>
<polygon fill="black" stroke="black" points="692.5,-106 702.5,-102.5 692.5,-99 692.5,-106"/>
</g>
<!-- HrmpChannelId -->
<g id="node6" class="node">
<title>HrmpChannelId</title>
<text text-anchor="start" x="199" y="-54.3" font-family="Times,serif" font-size="14.00">HrmpChannelId</text>
<polygon fill="none" stroke="black" points="196,-25.5 196,-46.5 280,-46.5 280,-25.5 196,-25.5"/>
<text text-anchor="start" x="213.5" y="-32.3" font-family="Times,serif" font-size="14.00">sender</text>
<polygon fill="none" stroke="black" points="282,-25.5 282,-46.5 317,-46.5 317,-25.5 282,-25.5"/>
<text text-anchor="start" x="292" y="-32.3" font-family="Times,serif" font-size="14.00">Id</text>
<polygon fill="none" stroke="black" points="196,-2.5 196,-23.5 280,-23.5 280,-2.5 196,-2.5"/>
<text text-anchor="start" x="206" y="-9.3" font-family="Times,serif" font-size="14.00">recipient</text>
<polygon fill="none" stroke="black" points="282,-2.5 282,-23.5 317,-23.5 317,-2.5 282,-2.5"/>
<text text-anchor="start" x="292" y="-9.3" font-family="Times,serif" font-size="14.00">Id</text>
<polygon fill="none" stroke="black" points="192.5,0 192.5,-71 319.5,-71 319.5,0 192.5,0"/>
</g>
<!-- HrmpChannelId&#45;&gt;Id -->
<g id="edge2" class="edge">
<title>HrmpChannelId:e&#45;&gt;Id:name</title>
<path fill="none" stroke="black" d="M321,-35.5C489.62,-35.5 528.77,-99.78 692.08,-102.42"/>
<polygon fill="black" stroke="black" points="692.47,-105.92 702.5,-102.5 692.53,-98.92 692.47,-105.92"/>
</g>
<!-- ValidationParams -->
<g id="node7" class="node">
<title>ValidationParams</title>
<text text-anchor="start" x="194" y="-483.3" font-family="Times,serif" font-size="14.00">ValidationParams</text>
<polygon fill="none" stroke="black" points="93,-454.5 93,-475.5 233,-475.5 233,-454.5 93,-454.5"/>
<text text-anchor="start" x="118.5" y="-461.3" font-family="Times,serif" font-size="14.00">parent_head</text>
<polygon fill="none" stroke="black" points="235,-454.5 235,-475.5 420,-475.5 420,-454.5 235,-454.5"/>
<text text-anchor="start" x="291.5" y="-461.3" font-family="Times,serif" font-size="14.00">HeadData</text>
<polygon fill="none" stroke="black" points="93,-431.5 93,-452.5 233,-452.5 233,-431.5 93,-431.5"/>
<text text-anchor="start" x="125" y="-438.3" font-family="Times,serif" font-size="14.00">block_data</text>
<polygon fill="none" stroke="black" points="235,-431.5 235,-452.5 420,-452.5 420,-431.5 235,-431.5"/>
<text text-anchor="start" x="291" y="-438.3" font-family="Times,serif" font-size="14.00">BlockData</text>
<polygon fill="none" stroke="black" points="93,-408.5 93,-429.5 233,-429.5 233,-408.5 93,-408.5"/>
<text text-anchor="start" x="96" y="-415.3" font-family="Times,serif" font-size="14.00">relay_chain_height</text>
<polygon fill="none" stroke="black" points="235,-408.5 235,-429.5 420,-429.5 420,-408.5 235,-408.5"/>
<text text-anchor="start" x="238" y="-415.3" font-family="Times,serif" font-size="14.00">RelayChainBlockNumber</text>
<polygon fill="none" stroke="black" points="93,-385.5 93,-406.5 233,-406.5 233,-385.5 93,-385.5"/>
<text text-anchor="start" x="96.5" y="-392.3" font-family="Times,serif" font-size="14.00">relay_storage_root</text>
<polygon fill="none" stroke="black" points="235,-385.5 235,-406.5 420,-406.5 420,-385.5 235,-385.5"/>
<text text-anchor="start" x="309" y="-392.3" font-family="Times,serif" font-size="14.00">Hash</text>
<polygon fill="none" stroke="black" points="93,-362.5 93,-383.5 233,-383.5 233,-362.5 93,-362.5"/>
<text text-anchor="start" x="108" y="-369.3" font-family="Times,serif" font-size="14.00">dmq_mqc_head</text>
<polygon fill="none" stroke="black" points="235,-362.5 235,-383.5 420,-383.5 420,-362.5 235,-362.5"/>
<text text-anchor="start" x="309" y="-369.3" font-family="Times,serif" font-size="14.00">Hash</text>
<polygon fill="none" stroke="black" points="93,-339.5 93,-360.5 233,-360.5 233,-339.5 93,-339.5"/>
<text text-anchor="start" x="101" y="-346.3" font-family="Times,serif" font-size="14.00">hrmp_mqc_heads</text>
<polygon fill="none" stroke="black" points="235,-339.5 235,-360.5 420,-360.5 420,-339.5 235,-339.5"/>
<text text-anchor="start" x="267.5" y="-346.3" font-family="Times,serif" font-size="14.00">Vec&lt;(Id, Hash)&gt;</text>
<polygon fill="none" stroke="black" points="89.5,-337 89.5,-500 422.5,-500 422.5,-337 89.5,-337"/>
</g>
<!-- ValidationParams&#45;&gt;HeadData -->
<g id="edge3" class="edge">
<title>ValidationParams:parent_head&#45;&gt;HeadData:name</title>
<path fill="none" stroke="black" d="M421,-465.5C485.03,-465.5 487.65,-418.89 548,-397.5 602.52,-378.18 620.19,-372.17 673.5,-371.55"/>
<polygon fill="black" stroke="black" points="673.52,-375.05 683.5,-371.5 673.48,-368.05 673.52,-375.05"/>
</g>
<!-- ValidationParams&#45;&gt;BlockData -->
<g id="edge4" class="edge">
<title>ValidationParams:block_data&#45;&gt;BlockData:name</title>
<path fill="none" stroke="black" d="M421,-442.5C534.25,-442.5 565.05,-442.5 673.47,-442.5"/>
<polygon fill="black" stroke="black" points="673.5,-446 683.5,-442.5 673.5,-439 673.5,-446"/>
</g>
<!-- RelayChainBlockNumber -->
<g id="node8" class="node">
<title>RelayChainBlockNumber</title>
<text text-anchor="middle" x="729.5" y="-201.8" font-family="Times,serif" font-size="14.00">polkadot_core_primitives::BlockNumber</text>
</g>
<!-- ValidationParams&#45;&gt;RelayChainBlockNumber -->
<g id="edge5" class="edge">
<title>ValidationParams:relay_chain_height&#45;&gt;RelayChainBlockNumber:w</title>
<path fill="none" stroke="black" d="M421,-419.5C478.2,-419.5 481.79,-377.07 512,-328.5 538.28,-286.25 514.59,-259.37 548,-222.5 557.7,-211.8 564.05,-207.4 575.28,-206.02"/>
<polygon fill="black" stroke="black" points="575.69,-209.51 585.5,-205.5 575.33,-202.51 575.69,-209.51"/>
</g>
<!-- ValidationResult -->
<g id="node9" class="node">
<title>ValidationResult</title>
<text text-anchor="start" x="197" y="-302.3" font-family="Times,serif" font-size="14.00">ValidationResult</text>
<polygon fill="none" stroke="black" points="3,-273.5 3,-294.5 239,-294.5 239,-273.5 3,-273.5"/>
<text text-anchor="start" x="84.5" y="-280.3" font-family="Times,serif" font-size="14.00">head_data</text>
<polygon fill="none" stroke="black" points="241,-273.5 241,-294.5 509,-294.5 509,-273.5 241,-273.5"/>
<text text-anchor="start" x="339" y="-280.3" font-family="Times,serif" font-size="14.00">HeadData</text>
<polygon fill="none" stroke="black" points="3,-250.5 3,-271.5 239,-271.5 239,-250.5 3,-250.5"/>
<text text-anchor="start" x="47.5" y="-257.3" font-family="Times,serif" font-size="14.00">new_validation_code</text>
<polygon fill="none" stroke="black" points="241,-250.5 241,-271.5 509,-271.5 509,-250.5 241,-250.5"/>
<text text-anchor="start" x="285" y="-257.3" font-family="Times,serif" font-size="14.00">Option&lt;ValidationCode&gt;</text>
<polygon fill="none" stroke="black" points="3,-227.5 3,-248.5 239,-248.5 239,-227.5 3,-227.5"/>
<text text-anchor="start" x="55.5" y="-234.3" font-family="Times,serif" font-size="14.00">upward_messages</text>
<polygon fill="none" stroke="black" points="241,-227.5 241,-248.5 509,-248.5 509,-227.5 241,-227.5"/>
<text text-anchor="start" x="290.5" y="-234.3" font-family="Times,serif" font-size="14.00">Vec&lt;UpwardMessage&gt;</text>
<polygon fill="none" stroke="black" points="3,-204.5 3,-225.5 239,-225.5 239,-204.5 3,-204.5"/>
<text text-anchor="start" x="46.5" y="-211.3" font-family="Times,serif" font-size="14.00">horizontal_messages</text>
<polygon fill="none" stroke="black" points="241,-204.5 241,-225.5 509,-225.5 509,-204.5 241,-204.5"/>
<text text-anchor="start" x="244" y="-211.3" font-family="Times,serif" font-size="14.00">Vec&lt;OutboundHrmpMessage&lt;Id&gt;&gt;</text>
<polygon fill="none" stroke="black" points="3,-181.5 3,-202.5 239,-202.5 239,-181.5 3,-181.5"/>
<text text-anchor="start" x="6" y="-188.3" font-family="Times,serif" font-size="14.00">processed_downward_messages</text>
<polygon fill="none" stroke="black" points="241,-181.5 241,-202.5 509,-202.5 509,-181.5 241,-181.5"/>
<text text-anchor="start" x="361" y="-188.3" font-family="Times,serif" font-size="14.00">u32</text>
<polygon fill="none" stroke="black" points="3,-158.5 3,-179.5 239,-179.5 239,-158.5 3,-158.5"/>
<text text-anchor="start" x="59" y="-165.3" font-family="Times,serif" font-size="14.00">hrmp_watermark</text>
<polygon fill="none" stroke="black" points="241,-158.5 241,-179.5 509,-179.5 509,-158.5 241,-158.5"/>
<text text-anchor="start" x="285.5" y="-165.3" font-family="Times,serif" font-size="14.00">RelayChainBlockNumber</text>
<polygon fill="none" stroke="black" points="0,-156 0,-319 512,-319 512,-156 0,-156"/>
</g>
<!-- ValidationResult&#45;&gt;HeadData -->
<g id="edge6" class="edge">
<title>ValidationResult:head_data&#45;&gt;HeadData:name</title>
<path fill="none" stroke="black" d="M510,-284.5C533.57,-284.5 528.06,-308.92 548,-321.5 599.32,-353.88 617.34,-369.72 673.38,-371.36"/>
<polygon fill="black" stroke="black" points="673.45,-374.86 683.5,-371.5 673.55,-367.86 673.45,-374.86"/>
</g>
<!-- ValidationResult&#45;&gt;ValidationCode -->
<g id="edge7" class="edge">
<title>ValidationResult:new_validation_code&#45;&gt;ValidationCode:name</title>
<path fill="none" stroke="black" d="M510,-261.5C580.38,-261.5 596.23,-296.93 661.5,-300.25"/>
<polygon fill="black" stroke="black" points="661.42,-303.75 671.5,-300.5 661.59,-296.75 661.42,-303.75"/>
</g>
<!-- ValidationResult&#45;&gt;Id -->
<g id="edge10" class="edge">
<title>ValidationResult:horizontal_messages&#45;&gt;Id:name</title>
<path fill="none" stroke="black" d="M510,-214.5C540.82,-214.5 523.72,-175.48 548,-156.5 602.51,-113.89 627.29,-103.48 692.18,-102.57"/>
<polygon fill="black" stroke="black" points="692.52,-106.07 702.5,-102.5 692.48,-99.07 692.52,-106.07"/>
</g>
<!-- ValidationResult&#45;&gt;RelayChainBlockNumber -->
<g id="edge11" class="edge">
<title>ValidationResult:hrmp_watermark&#45;&gt;RelayChainBlockNumber:w</title>
<path fill="none" stroke="black" d="M510,-168.5C529.3,-168.5 530.66,-181.04 548,-189.5 560.72,-195.71 565.39,-201.98 575.47,-204.43"/>
<polygon fill="black" stroke="black" points="575.18,-207.92 585.5,-205.5 575.93,-200.96 575.18,-207.92"/>
</g>
<!-- UpwardMessage -->
<g id="node10" class="node">
<title>UpwardMessage</title>
<text text-anchor="middle" x="729.5" y="-234.8" font-family="Times,serif" font-size="14.00">Vec&lt;u8&gt;</text>
</g>
<!-- ValidationResult&#45;&gt;UpwardMessage -->
<g id="edge8" class="edge">
<title>ValidationResult:upward_messages&#45;&gt;UpwardMessage:w</title>
<path fill="none" stroke="black" d="M510,-238.5C588.48,-238.5 610.62,-238.5 684.26,-238.5"/>
<polygon fill="black" stroke="black" points="684.5,-242 694.5,-238.5 684.5,-235 684.5,-242"/>
</g>
<!-- OutboundHrmpMessage -->
<g id="node11" class="node">
<title>OutboundHrmpMessage</title>
<text text-anchor="middle" x="729.5" y="-168.8" font-family="Times,serif" font-size="14.00">polkadot_core_primitives::OutboundHrmpMessage</text>
</g>
<!-- ValidationResult&#45;&gt;OutboundHrmpMessage -->
<g id="edge9" class="edge">
<title>ValidationResult:horizontal_messages&#45;&gt;OutboundHrmpMessage:w</title>
<path fill="none" stroke="black" d="M510,-214.5C531.04,-214.5 525.87,-185.15 538.31,-175.52"/>
<polygon fill="black" stroke="black" points="539.49,-178.82 548,-172.5 537.41,-172.13 539.49,-178.82"/>
</g>
</g>
</svg>
