<?xml version="1.0" encoding="UTF-8" standalone="no"?>
<!DOCTYPE svg PUBLIC "-//W3C//DTD SVG 1.1//EN"
 "http://www.w3.org/Graphics/SVG/1.1/DTD/svg11.dtd">
<!-- Generated by graphviz version 2.43.0 (0)
 -->
<!-- Title: %3 Pages: 1 -->
<svg width="919pt" height="462pt"
 viewBox="0.00 0.00 919.00 462.00" xmlns="http://www.w3.org/2000/svg" xmlns:xlink="http://www.w3.org/1999/xlink">
<g id="graph0" class="graph" transform="scale(1 1) rotate(0) translate(4 458)">
<title>%3</title>
<polygon fill="white" stroke="transparent" points="-4,4 -4,-458 915,-458 915,4 -4,4"/>
<!-- HeadData -->
<g id="node1" class="node">
<title>HeadData</title>
<text text-anchor="start" x="694" y="-346.3" font-family="Times,serif" font-size="14.00">HeadData</text>
<polygon fill="none" stroke="black" points="684.5,-317.5 684.5,-338.5 700.5,-338.5 700.5,-317.5 684.5,-317.5"/>
<text text-anchor="start" x="687.5" y="-324.3" font-family="Times,serif" font-size="14.00">0</text>
<polygon fill="none" stroke="black" points="702.5,-317.5 702.5,-338.5 775.5,-338.5 775.5,-317.5 702.5,-317.5"/>
<text text-anchor="start" x="705.5" y="-324.3" font-family="Times,serif" font-size="14.00">Vec&lt;u8&gt;</text>
<polygon fill="none" stroke="black" points="681,-314.5 681,-362.5 778,-362.5 778,-314.5 681,-314.5"/>
</g>
<!-- ValidationCode -->
<g id="node2" class="node">
<title>ValidationCode</title>
<text text-anchor="start" x="675.5" y="-280.3" font-family="Times,serif" font-size="14.00">ValidationCode</text>
<polygon fill="none" stroke="black" points="672.5,-251.5 672.5,-272.5 699.5,-272.5 699.5,-251.5 672.5,-251.5"/>
<text text-anchor="start" x="681" y="-258.3" font-family="Times,serif" font-size="14.00">0</text>
<polygon fill="none" stroke="black" points="701.5,-251.5 701.5,-272.5 786.5,-272.5 786.5,-251.5 701.5,-251.5"/>
<text text-anchor="start" x="710.5" y="-258.3" font-family="Times,serif" font-size="14.00">Vec&lt;u8&gt;</text>
<polygon fill="none" stroke="black" points="669.5,-248.5 669.5,-296.5 789.5,-296.5 789.5,-248.5 669.5,-248.5"/>
</g>
<!-- BlockData -->
<g id="node3" class="node">
<title>BlockData</title>
<text text-anchor="start" x="693.5" y="-412.3" font-family="Times,serif" font-size="14.00">BlockData</text>
<polygon fill="none" stroke="black" points="684.5,-383.5 684.5,-404.5 700.5,-404.5 700.5,-383.5 684.5,-383.5"/>
<text text-anchor="start" x="687.5" y="-390.3" font-family="Times,serif" font-size="14.00">0</text>
<polygon fill="none" stroke="black" points="702.5,-383.5 702.5,-404.5 775.5,-404.5 775.5,-383.5 702.5,-383.5"/>
<text text-anchor="start" x="705.5" y="-390.3" font-family="Times,serif" font-size="14.00">Vec&lt;u8&gt;</text>
<polygon fill="none" stroke="black" points="681,-380.5 681,-428.5 778,-428.5 778,-380.5 681,-380.5"/>
</g>
<!-- Id -->
<g id="node4" class="node">
<title>Id</title>
<text text-anchor="start" x="722" y="-98.3" font-family="Times,serif" font-size="14.00">Id</text>
<polygon fill="none" stroke="black" points="703.5,-69.5 703.5,-90.5 719.5,-90.5 719.5,-69.5 703.5,-69.5"/>
<text text-anchor="start" x="706.5" y="-76.3" font-family="Times,serif" font-size="14.00">0</text>
<polygon fill="none" stroke="black" points="721.5,-69.5 721.5,-90.5 755.5,-90.5 755.5,-69.5 721.5,-69.5"/>
<text text-anchor="start" x="724.5" y="-76.3" font-family="Times,serif" font-size="14.00">u32</text>
<polygon fill="none" stroke="black" points="700.5,-66.5 700.5,-114.5 758.5,-114.5 758.5,-66.5 700.5,-66.5"/>
</g>
<!-- Sibling -->
<g id="node5" class="node">
<title>Sibling</title>
<text text-anchor="start" x="231" y="-121.3" font-family="Times,serif" font-size="14.00">Sibling</text>
<polygon fill="none" stroke="black" points="228,-92.5 228,-113.5 253,-113.5 253,-92.5 228,-92.5"/>
<text text-anchor="start" x="235.5" y="-99.3" font-family="Times,serif" font-size="14.00">0</text>
<polygon fill="none" stroke="black" points="255,-92.5 255,-113.5 285,-113.5 285,-92.5 255,-92.5"/>
<text text-anchor="start" x="262.5" y="-99.3" font-family="Times,serif" font-size="14.00">Id</text>
<polygon fill="none" stroke="black" points="224.5,-89.5 224.5,-137.5 287.5,-137.5 287.5,-89.5 224.5,-89.5"/>
</g>
<!-- Sibling&#45;&gt;Id -->
<g id="edge1" class="edge">
<title>Sibling:0&#45;&gt;Id:name</title>
<path fill="none" stroke="black" d="M286,-102.5C467.68,-102.5 515.62,-102.5 692.34,-102.5"/>
<polygon fill="black" stroke="black" points="692.5,-106 702.5,-102.5 692.5,-99 692.5,-106"/>
</g>
<!-- HrmpChannelId -->
<g id="node6" class="node">
<title>HrmpChannelId</title>
<text text-anchor="start" x="199" y="-54.3" font-family="Times,serif" font-size="14.00">HrmpChannelId</text>
<polygon fill="none" stroke="black" points="196,-25.5 196,-46.5 280,-46.5 280,-25.5 196,-25.5"/>
<text text-anchor="start" x="213.5" y="-32.3" font-family="Times,serif" font-size="14.00">sender</text>
<polygon fill="none" stroke="black" points="282,-25.5 282,-46.5 317,-46.5 317,-25.5 282,-25.5"/>
<text text-anchor="start" x="292" y="-32.3" font-family="Times,serif" font-size="14.00">Id</text>
<polygon fill="none" stroke="black" points="196,-2.5 196,-23.5 280,-23.5 280,-2.5 196,-2.5"/>
<text text-anchor="start" x="206" y="-9.3" font-family="Times,serif" font-size="14.00">recipient</text>
<polygon fill="none" stroke="black" points="282,-2.5 282,-23.5 317,-23.5 317,-2.5 282,-2.5"/>
<text text-anchor="start" x="292" y="-9.3" font-family="Times,serif" font-size="14.00">Id</text>
<polygon fill="none" stroke="black" points="192.5,0 192.5,-71 319.5,-71 319.5,0 192.5,0"/>
</g>
<!-- HrmpChannelId&#45;&gt;Id -->
<g id="edge2" class="edge">
<title>HrmpChannelId:e&#45;&gt;Id:name</title>
<path fill="none" stroke="black" d="M321,-35.5C489.62,-35.5 528.77,-99.78 692.08,-102.42"/>
<polygon fill="black" stroke="black" points="692.47,-105.92 702.5,-102.5 692.53,-98.92 692.47,-105.92"/>
</g>
<!-- ValidationParams -->
<g id="node7" class="node">
<title>ValidationParams</title>
<text text-anchor="start" x="193.5" y="-437.3" font-family="Times,serif" font-size="14.00">ValidationParams</text>
<polygon fill="none" stroke="black" points="66,-408.5 66,-429.5 259,-429.5 259,-408.5 66,-408.5"/>
<text text-anchor="start" x="118" y="-415.3" font-family="Times,serif" font-size="14.00">parent_head</text>
<polygon fill="none" stroke="black" points="261,-408.5 261,-429.5 446,-429.5 446,-408.5 261,-408.5"/>
<text text-anchor="start" x="317.5" y="-415.3" font-family="Times,serif" font-size="14.00">HeadData</text>
<polygon fill="none" stroke="black" points="66,-385.5 66,-406.5 259,-406.5 259,-385.5 66,-385.5"/>
<text text-anchor="start" x="124.5" y="-392.3" font-family="Times,serif" font-size="14.00">block_data</text>
<polygon fill="none" stroke="black" points="261,-385.5 261,-406.5 446,-406.5 446,-385.5 261,-385.5"/>
<text text-anchor="start" x="317" y="-392.3" font-family="Times,serif" font-size="14.00">BlockData</text>
<polygon fill="none" stroke="black" points="66,-362.5 66,-383.5 259,-383.5 259,-362.5 66,-362.5"/>
<text text-anchor="start" x="86" y="-369.3" font-family="Times,serif" font-size="14.00">relay_parent_number</text>
<polygon fill="none" stroke="black" points="261,-362.5 261,-383.5 446,-383.5 446,-362.5 261,-362.5"/>
<text text-anchor="start" x="264" y="-369.3" font-family="Times,serif" font-size="14.00">RelayChainBlockNumber</text>
<polygon fill="none" stroke="black" points="66,-339.5 66,-360.5 259,-360.5 259,-339.5 66,-339.5"/>
<text text-anchor="start" x="69" y="-346.3" font-family="Times,serif" font-size="14.00">relay_parent_storage_root</text>
<polygon fill="none" stroke="black" points="261,-339.5 261,-360.5 446,-360.5 446,-339.5 261,-339.5"/>
<text text-anchor="start" x="335" y="-346.3" font-family="Times,serif" font-size="14.00">Hash</text>
<polygon fill="none" stroke="black" points="63,-337 63,-454 449,-454 449,-337 63,-337"/>
</g>
<!-- ValidationParams&#45;&gt;HeadData -->
<g id="edge3" class="edge">
<title>ValidationParams:parent_head&#45;&gt;HeadData:name</title>
<path fill="none" stroke="black" d="M447,-419.5C496.7,-419.5 500.5,-386.13 548,-371.5 602.83,-354.62 620.5,-350.91 673.23,-350.53"/>
<polygon fill="black" stroke="black" points="673.51,-354.03 683.5,-350.5 673.49,-347.03 673.51,-354.03"/>
</g>
<!-- ValidationParams&#45;&gt;BlockData -->
<g id="edge4" class="edge">
<title>ValidationParams:block_data&#45;&gt;BlockData:name</title>
<path fill="none" stroke="black" d="M447,-396.5C548.98,-396.5 576.23,-415.19 673.25,-416.44"/>
<polygon fill="black" stroke="black" points="673.48,-419.94 683.5,-416.5 673.52,-412.94 673.48,-419.94"/>
</g>
<!-- RelayChainBlockNumber -->
<g id="node8" class="node">
<title>RelayChainBlockNumber</title>
<text text-anchor="middle" x="729.5" y="-185.8" font-family="Times,serif" font-size="14.00">polkadot_core_primitives::BlockNumber</text>
</g>
<!-- ValidationParams&#45;&gt;RelayChainBlockNumber -->
<g id="edge5" class="edge">
<title>ValidationParams:relay_parent_number&#45;&gt;RelayChainBlockNumber:w</title>
<path fill="none" stroke="black" d="M447,-372.5C481.89,-372.5 491.41,-356.66 512,-328.5 551.07,-275.06 519.37,-198.14 575.31,-190.17"/>
<polygon fill="black" stroke="black" points="575.75,-193.65 585.5,-189.5 575.29,-186.67 575.75,-193.65"/>
</g>
<!-- ValidationResult -->
<g id="node9" class="node">
<title>ValidationResult</title>
<text text-anchor="start" x="197" y="-302.3" font-family="Times,serif" font-size="14.00">ValidationResult</text>
<polygon fill="none" stroke="black" points="3,-273.5 3,-294.5 239,-294.5 239,-273.5 3,-273.5"/>
<text text-anchor="start" x="84.5" y="-280.3" font-family="Times,serif" font-size="14.00">head_data</text>
<polygon fill="none" stroke="black" points="241,-273.5 241,-294.5 509,-294.5 509,-273.5 241,-273.5"/>
<text text-anchor="start" x="339" y="-280.3" font-family="Times,serif" font-size="14.00">HeadData</text>
<polygon fill="none" stroke="black" points="3,-250.5 3,-271.5 239,-271.5 239,-250.5 3,-250.5"/>
<text text-anchor="start" x="47.5" y="-257.3" font-family="Times,serif" font-size="14.00">new_validation_code</text>
<polygon fill="none" stroke="black" points="241,-250.5 241,-271.5 509,-271.5 509,-250.5 241,-250.5"/>
<text text-anchor="start" x="285" y="-257.3" font-family="Times,serif" font-size="14.00">Option&lt;ValidationCode&gt;</text>
<polygon fill="none" stroke="black" points="3,-227.5 3,-248.5 239,-248.5 239,-227.5 3,-227.5"/>
<text text-anchor="start" x="55.5" y="-234.3" font-family="Times,serif" font-size="14.00">upward_messages</text>
<polygon fill="none" stroke="black" points="241,-227.5 241,-248.5 509,-248.5 509,-227.5 241,-227.5"/>
<text text-anchor="start" x="290.5" y="-234.3" font-family="Times,serif" font-size="14.00">Vec&lt;UpwardMessage&gt;</text>
<polygon fill="none" stroke="black" points="3,-204.5 3,-225.5 239,-225.5 239,-204.5 3,-204.5"/>
<text text-anchor="start" x="46.5" y="-211.3" font-family="Times,serif" font-size="14.00">horizontal_messages</text>
<polygon fill="none" stroke="black" points="241,-204.5 241,-225.5 509,-225.5 509,-204.5 241,-204.5"/>
<text text-anchor="start" x="244" y="-211.3" font-family="Times,serif" font-size="14.00">Vec&lt;OutboundHrmpMessage&lt;Id&gt;&gt;</text>
<polygon fill="none" stroke="black" points="3,-181.5 3,-202.5 239,-202.5 239,-181.5 3,-181.5"/>
<text text-anchor="start" x="6" y="-188.3" font-family="Times,serif" font-size="14.00">processed_downward_messages</text>
<polygon fill="none" stroke="black" points="241,-181.5 241,-202.5 509,-202.5 509,-181.5 241,-181.5"/>
<text text-anchor="start" x="361" y="-188.3" font-family="Times,serif" font-size="14.00">u32</text>
<polygon fill="none" stroke="black" points="3,-158.5 3,-179.5 239,-179.5 239,-158.5 3,-158.5"/>
<text text-anchor="start" x="59" y="-165.3" font-family="Times,serif" font-size="14.00">hrmp_watermark</text>
<polygon fill="none" stroke="black" points="241,-158.5 241,-179.5 509,-179.5 509,-158.5 241,-158.5"/>
<text text-anchor="start" x="285.5" y="-165.3" font-family="Times,serif" font-size="14.00">RelayChainBlockNumber</text>
<polygon fill="none" stroke="black" points="0,-156 0,-319 512,-319 512,-156 0,-156"/>
</g>
<!-- ValidationResult&#45;&gt;HeadData -->
<g id="edge6" class="edge">
<title>ValidationResult:head_data&#45;&gt;HeadData:name</title>
<path fill="none" stroke="black" d="M510,-284.5C529.3,-284.5 530.32,-297.76 548,-305.5 602.83,-329.51 618.33,-348.27 673.18,-350.31"/>
<polygon fill="black" stroke="black" points="673.44,-353.82 683.5,-350.5 673.56,-346.82 673.44,-353.82"/>
</g>
<!-- ValidationResult&#45;&gt;ValidationCode -->
<g id="edge7" class="edge">
<title>ValidationResult:new_validation_code&#45;&gt;ValidationCode:name</title>
<path fill="none" stroke="black" d="M510,-261.5C578.96,-261.5 597.25,-282.31 661.27,-284.34"/>
<polygon fill="black" stroke="black" points="661.45,-287.84 671.5,-284.5 661.56,-280.84 661.45,-287.84"/>
</g>
<!-- ValidationResult&#45;&gt;Id -->
<g id="edge10" class="edge">
<title>ValidationResult:horizontal_messages&#45;&gt;Id:name</title>
<path fill="none" stroke="black" d="M510,-214.5C546.97,-214.5 518.99,-163.42 548,-140.5 600.77,-98.8 628.96,-102.05 692.44,-102.46"/>
<polygon fill="black" stroke="black" points="692.49,-105.96 702.5,-102.5 692.51,-98.96 692.49,-105.96"/>
</g>
<!-- ValidationResult&#45;&gt;RelayChainBlockNumber -->
<g id="edge11" class="edge">
<title>ValidationResult:hrmp_watermark&#45;&gt;RelayChainBlockNumber:w</title>
<path fill="none" stroke="black" d="M510,-168.5C541.16,-168.5 549.12,-185.3 575.38,-188.85"/>
<polygon fill="black" stroke="black" points="575.3,-192.35 585.5,-189.5 575.75,-185.36 575.3,-192.35"/>
</g>
<!-- UpwardMessage -->
<g id="node10" class="node">
<title>UpwardMessage</title>
<text text-anchor="middle" x="729.5" y="-218.8" font-family="Times,serif" font-size="14.00">Vec&lt;u8&gt;</text>
</g>
<!-- ValidationResult&#45;&gt;UpwardMessage -->
<g id="edge8" class="edge">
<title>ValidationResult:upward_messages&#45;&gt;UpwardMessage:w</title>
<path fill="none" stroke="black" d="M510,-238.5C588.77,-238.5 610.37,-223.85 684.23,-222.59"/>
<polygon fill="black" stroke="black" points="684.53,-226.08 694.5,-222.5 684.47,-219.08 684.53,-226.08"/>
</g>
<!-- OutboundHrmpMessage -->
<g id="node11" class="node">
<title>OutboundHrmpMessage</title>
<text text-anchor="middle" x="729.5" y="-152.8" font-family="Times,serif" font-size="14.00">polkadot_core_primitives::OutboundHrmpMessage</text>
</g>
<!-- ValidationResult&#45;&gt;OutboundHrmpMessage -->
<g id="edge9" class="edge">
<title>ValidationResult:horizontal_messages&#45;&gt;OutboundHrmpMessage:w</title>
<path fill="none" stroke="black" d="M510,-214.5C536.72,-214.5 522.5,-170.88 538.35,-159.3"/>
<polygon fill="black" stroke="black" points="539.37,-162.65 548,-156.5 537.42,-155.92 539.37,-162.65"/>
</g>
</g>
</svg>
