<?xml version="1.0" encoding="UTF-8" standalone="no"?>
<!DOCTYPE svg PUBLIC "-//W3C//DTD SVG 1.1//EN"
 "http://www.w3.org/Graphics/SVG/1.1/DTD/svg11.dtd">
<!-- Generated by graphviz version 2.43.0 (0)
 -->
<!-- Title: %3 Pages: 1 -->
<svg width="2655pt" height="1292pt"
 viewBox="0.00 0.00 2655.01 1292.14" xmlns="http://www.w3.org/2000/svg" xmlns:xlink="http://www.w3.org/1999/xlink">
<g id="graph0" class="graph" transform="scale(1 1) rotate(0) translate(4 1288.14)">
<title>%3</title>
<polygon fill="white" stroke="transparent" points="-4,4 -4,-1288.14 2651.01,-1288.14 2651.01,4 -4,4"/>
<!-- av_store -->
<g id="node1" class="node">
<title>av_store</title>
<ellipse fill="none" stroke="black" cx="2079.92" cy="-1036.14" rx="90.98" ry="18"/>
<text text-anchor="middle" x="2079.92" y="-1032.44" font-family="Times,serif" font-size="14.00">Availability Store</text>
</g>
<!-- chn_api -->
<g id="node9" class="node">
<title>chn_api</title>
<ellipse fill="none" stroke="black" cx="2557.97" cy="-1043.14" rx="56.59" ry="18"/>
<text text-anchor="middle" x="2557.97" y="-1039.44" font-family="Times,serif" font-size="14.00">Chain API</text>
</g>
<!-- av_store&#45;&gt;chn_api -->
<g id="edge2" class="edge">
<title>av_store&#45;&gt;chn_api</title>
<path fill="none" stroke="black" d="M2132.24,-1021.37C2155.7,-1015.35 2184,-1009.12 2209.92,-1006.14 2316.34,-993.93 2345.32,-988.25 2450.92,-1006.14 2471.94,-1009.7 2494.34,-1016.97 2513.12,-1024.13"/>
<polygon fill="black" stroke="black" points="2513.13,-1024.13 2520.18,-1022.61 2524.29,-1028.54 2517.24,-1030.05 2513.13,-1024.13"/>
<text text-anchor="middle" x="2330.42" y="-1009.94" font-family="Times,serif" font-size="14.00">BlockNumber</text>
</g>
<!-- av_store&#45;&gt;chn_api -->
<g id="edge3" class="edge">
<title>av_store&#45;&gt;chn_api</title>
<path fill="none" stroke="black" d="M2142.31,-1049.37C2163.61,-1053.35 2187.72,-1057.18 2209.92,-1059.14 2316.62,-1068.58 2344.11,-1067.15 2450.92,-1059.14 2465.72,-1058.03 2481.58,-1056.06 2496.41,-1053.88"/>
<polygon fill="black" stroke="black" points="2496.71,-1053.83 2502.03,-1048.96 2508.57,-1052 2503.25,-1056.87 2496.71,-1053.83"/>
<text text-anchor="middle" x="2330.42" y="-1068.94" font-family="Times,serif" font-size="14.00">BlockHeader</text>
</g>
<!-- av_store&#45;&gt;chn_api -->
<g id="edge5" class="edge">
<title>av_store&#45;&gt;chn_api</title>
<path fill="none" stroke="black" d="M2171.03,-1036.68C2245.95,-1037.23 2355.39,-1038.27 2450.92,-1040.14 2463.41,-1040.39 2476.73,-1040.71 2489.55,-1041.06"/>
<polygon fill="black" stroke="black" points="2489.66,-1041.06 2495.77,-1037.23 2501.66,-1041.39 2495.55,-1045.23 2489.66,-1041.06"/>
<text text-anchor="middle" x="2330.42" y="-1043.94" font-family="Times,serif" font-size="14.00">FinalizedBlockHash</text>
</g>
<!-- runt_api -->
<g id="node15" class="node">
<title>runt_api</title>
<ellipse fill="none" stroke="black" cx="2557.97" cy="-812.14" rx="69.59" ry="18"/>
<text text-anchor="middle" x="2557.97" y="-808.44" font-family="Times,serif" font-size="14.00">Runtime API</text>
</g>
<!-- av_store&#45;&gt;runt_api -->
<g id="edge1" class="edge">
<title>av_store&#45;&gt;runt_api</title>
<path fill="none" stroke="black" d="M2150.07,-1024.67C2164.86,-1019.99 2179.69,-1013.4 2191.92,-1004.14 2204.02,-994.99 2197.15,-983.32 2209.92,-975.14 2300.82,-916.93 2356.76,-997.91 2450.92,-945.14 2493.83,-921.1 2525.79,-872.05 2542.89,-840.7"/>
<polygon fill="black" stroke="black" points="2542.91,-840.65 2542.17,-833.48 2548.51,-830.04 2549.25,-837.21 2542.91,-840.65"/>
<text text-anchor="middle" x="2330.42" y="-978.94" font-family="Times,serif" font-size="14.00">Request::CandidateEvents</text>
</g>
<!-- av_store&#45;&gt;runt_api -->
<g id="edge4" class="edge">
<title>av_store&#45;&gt;runt_api</title>
<path fill="none" stroke="black" d="M2155.99,-1026.25C2169.41,-1021.44 2182.2,-1014.41 2191.92,-1004.14 2216.39,-978.32 2182.97,-949.37 2209.92,-926.14 2250.62,-891.07 2401.54,-928.29 2450.92,-907.14 2485.36,-892.39 2516.19,-861.81 2535.62,-839.31"/>
<polygon fill="black" stroke="black" points="2535.76,-839.13 2536.55,-831.96 2543.47,-829.93 2542.68,-837.1 2535.76,-839.13"/>
<text text-anchor="middle" x="2330.42" y="-929.94" font-family="Times,serif" font-size="14.00">Request::Validators</text>
</g>
<!-- avail_dist -->
<g id="node2" class="node">
<title>avail_dist</title>
<ellipse fill="none" stroke="black" cx="122.19" cy="-1090.14" rx="122.38" ry="18"/>
<text text-anchor="middle" x="122.19" y="-1086.44" font-family="Times,serif" font-size="14.00">Availability Distribution</text>
</g>
<!-- avail_dist&#45;&gt;av_store -->
<g id="edge9" class="edge">
<title>avail_dist&#45;&gt;av_store</title>
<path fill="none" stroke="black" d="M405.38,-1139.14C603.27,-1134.89 646.47,-1196.41 842.16,-1226.14"/>
<path fill="none" stroke="black" d="M844.16,-1226.14C905.79,-1229.92 893.52,-1158.91 951.66,-1138.14 1050.68,-1102.78 1084.12,-1123.5 1188.24,-1138.14 1247.31,-1146.45 1257.68,-1172.09 1317.24,-1175.14"/>
<text text-anchor="middle" x="1069.95" y="-1141.94" font-family="Times,serif" font-size="14.00">QueryDataAvailability</text>
</g>
<!-- avail_dist&#45;&gt;av_store -->
<g id="edge10" class="edge">
<title>avail_dist&#45;&gt;av_store</title>
<path fill="none" stroke="black" d="M844.16,-1226.14C997.38,-1236.7 1035.75,-1212.45 1188.24,-1194.14 1245.78,-1187.23 1259.35,-1172.58 1317.24,-1175.14"/>
<text text-anchor="middle" x="1069.95" y="-1230.94" font-family="Times,serif" font-size="14.00">QueryChunk</text>
</g>
<!-- avail_dist&#45;&gt;av_store -->
<g id="edge11" class="edge">
<title>avail_dist&#45;&gt;av_store</title>
<path fill="none" stroke="black" d="M844.16,-1226.14C896.92,-1229.8 900.07,-1186.76 951.66,-1175.14 1110.17,-1139.45 1154.92,-1168.05 1317.24,-1175.14"/>
<text text-anchor="middle" x="1069.95" y="-1178.94" font-family="Times,serif" font-size="14.00">StoreChunk</text>
</g>
<!-- avail_dist&#45;&gt;chn_api -->
<g id="edge13" class="edge">
<title>avail_dist&#45;&gt;chn_api</title>
<path fill="none" stroke="black" d="M844.16,-1226.14C892.64,-1229.51 903.44,-1240.16 951.66,-1246.14 1113.23,-1266.18 1154.44,-1269.14 1317.24,-1269.14 1317.24,-1269.14 1317.24,-1269.14 2080.92,-1269.14 2266.66,-1269.14 2457.19,-1127.01 2528.1,-1068.18"/>
<polygon fill="black" stroke="black" points="2528.49,-1067.85 2530.51,-1060.93 2537.68,-1060.13 2535.66,-1067.05 2528.49,-1067.85"/>
<text text-anchor="middle" x="1318.24" y="-1272.94" font-family="Times,serif" font-size="14.00">Ancestors</text>
</g>
<!-- net_brdg -->
<g id="node12" class="node">
<title>net_brdg</title>
<ellipse fill="none" stroke="black" cx="649.52" cy="-736.14" rx="85.29" ry="18"/>
<text text-anchor="middle" x="649.52" y="-732.44" font-family="Times,serif" font-size="14.00">Network Bridge</text>
</g>
<!-- avail_dist&#45;&gt;net_brdg -->
<g id="edge6" class="edge">
<title>avail_dist&#45;&gt;net_brdg</title>
<path fill="none" stroke="black" d="M154.55,-1072.78C226.26,-1032.59 406.77,-928.67 546.38,-825.14 573.56,-804.98 602.46,-779.36 622.55,-760.8"/>
<polygon fill="none" stroke="black" points="625.13,-763.18 630.07,-753.8 620.36,-758.05 625.13,-763.18"/>
<text text-anchor="middle" x="404.38" y="-1010.94" font-family="Times,serif" font-size="14.00">Request::SendValidationMessages</text>
</g>
<!-- avail_dist&#45;&gt;net_brdg -->
<g id="edge8" class="edge">
<title>avail_dist&#45;&gt;net_brdg</title>
<path fill="none" stroke="black" d="M237.06,-1096.35C354.08,-1101.63 522.5,-1105.73 546.38,-1087.14 571.39,-1067.68 555.85,-1048.66 564.38,-1018.14 590.51,-924.66 624.2,-814.61 639.83,-764.08"/>
<polygon fill="none" stroke="black" points="643.27,-764.81 642.89,-754.22 636.58,-762.74 643.27,-764.81"/>
<text text-anchor="middle" x="404.38" y="-1103.94" font-family="Times,serif" font-size="14.00">ReportPeer</text>
</g>
<!-- avail_dist&#45;&gt;runt_api -->
<g id="edge7" class="edge">
<title>avail_dist&#45;&gt;runt_api</title>
<path fill="none" stroke="black" d="M1070.95,-1027.14C1131.48,-1025.59 1145.94,-1037.65 1206.24,-1043.14 1358.96,-1057.04 1397.23,-1066.27 1550.58,-1065.14"/>
<text text-anchor="middle" x="1318.24" y="-1065.94" font-family="Times,serif" font-size="14.00">Request::AvailabilityCores</text>
</g>
<!-- avail_dist&#45;&gt;runt_api -->
<g id="edge12" class="edge">
<title>avail_dist&#45;&gt;runt_api</title>
<path fill="none" stroke="black" d="M1070.95,-1027.14C1230.58,-1022.73 1272.7,-998.04 1430.24,-1024.14 1485.99,-1033.38 1494.08,-1065.38 1550.58,-1065.14"/>
<path fill="none" stroke="black" d="M1552.58,-1065.14C1611.66,-1065.09 2020.94,-1001.44 2078.92,-990.14"/>
<text text-anchor="middle" x="1318.24" y="-1027.94" font-family="Times,serif" font-size="14.00">Request::Validators</text>
</g>
<!-- avail_dist&#45;&gt;runt_api -->
<g id="edge14" class="edge">
<title>avail_dist&#45;&gt;runt_api</title>
<path fill="none" stroke="black" d="M181.71,-1105.86C238.04,-1119.69 325.86,-1137.82 403.38,-1139.14"/>
<path fill="none" stroke="black" d="M405.38,-1139.14C704.43,-1144.24 769.99,-1036 1068.95,-1027.14"/>
<path fill="none" stroke="black" d="M1070.95,-1027.14C1086.38,-1025.67 1190.86,-995.08 1206.24,-993.14 1312.96,-979.71 1340.69,-992.53 1448.24,-992.14 1457,-992.11 2070.32,-991.78 2078.92,-990.14"/>
<text text-anchor="middle" x="1318.24" y="-996.94" font-family="Times,serif" font-size="14.00">Request::SessionIndexForChild</text>
</g>
<!-- avail_rcov -->
<g id="node3" class="node">
<title>avail_rcov</title>
<ellipse fill="none" stroke="black" cx="122.19" cy="-774.14" rx="108.58" ry="18"/>
<text text-anchor="middle" x="122.19" y="-770.44" font-family="Times,serif" font-size="14.00">Availability Recovery</text>
</g>
<!-- avail_rcov&#45;&gt;av_store -->
<g id="edge16" class="edge">
<title>avail_rcov&#45;&gt;av_store</title>
<path fill="none" stroke="black" d="M127.11,-792.34C138.45,-840.01 176.11,-968.63 262.38,-1024.14 284.08,-1038.11 1163.64,-1091.35 1188.24,-1099.14 1251.68,-1119.23 1250.76,-1172.24 1317.24,-1175.14"/>
<path fill="none" stroke="black" d="M1319.24,-1175.14C1585.06,-1183.3 1895.02,-1095.37 2021.14,-1055.35"/>
<polygon fill="black" stroke="black" points="2021.34,-1055.29 2025.83,-1049.65 2032.77,-1051.64 2028.27,-1057.27 2021.34,-1055.29"/>
<text text-anchor="middle" x="1069.95" y="-1102.94" font-family="Times,serif" font-size="14.00">QueryChunk</text>
</g>
<!-- avail_rcov&#45;&gt;net_brdg -->
<g id="edge15" class="edge">
<title>avail_rcov&#45;&gt;net_brdg</title>
<path fill="none" stroke="black" d="M171.53,-758.01C198.02,-750.01 231.64,-741.2 262.38,-737.14 363.04,-723.86 479.74,-725.94 558.28,-729.86"/>
<polygon fill="none" stroke="black" points="558.45,-733.37 568.62,-730.4 558.82,-726.38 558.45,-733.37"/>
<text text-anchor="middle" x="404.38" y="-740.94" font-family="Times,serif" font-size="14.00">ReportPeer</text>
</g>
<!-- avail_rcov&#45;&gt;net_brdg -->
<g id="edge17" class="edge">
<title>avail_rcov&#45;&gt;net_brdg</title>
<path fill="none" stroke="black" d="M150.64,-756.61C177.8,-740.39 221.15,-717.42 262.38,-708.14 385.52,-680.43 421.28,-691.31 546.38,-708.14 561.18,-710.13 576.88,-713.68 591.41,-717.6"/>
<polygon fill="black" stroke="black" points="591.75,-717.69 598.61,-715.47 603.3,-720.95 596.44,-723.17 591.75,-717.69"/>
<text text-anchor="middle" x="404.38" y="-711.94" font-family="Times,serif" font-size="14.00">ConnectToValidators</text>
</g>
<!-- avail_rcov&#45;&gt;net_brdg -->
<g id="edge18" class="edge">
<title>avail_rcov&#45;&gt;net_brdg</title>
<path fill="none" stroke="black" d="M191.07,-788.14C275.66,-803 424,-820.5 546.38,-790.14 570.92,-784.05 596.05,-770.87 615.25,-759.06"/>
<polygon fill="none" stroke="black" points="617.32,-761.89 623.9,-753.58 613.57,-755.97 617.32,-761.89"/>
<text text-anchor="middle" x="404.38" y="-809.94" font-family="Times,serif" font-size="14.00">SendValidationMessage::Chunk</text>
</g>
<!-- avail_rcov&#45;&gt;net_brdg -->
<g id="edge19" class="edge">
<title>avail_rcov&#45;&gt;net_brdg</title>
<path fill="none" stroke="black" d="M229.95,-771.65C315.66,-768.91 438.99,-763.31 546.38,-752.14 555,-751.24 564.01,-750.12 572.95,-748.88"/>
<polygon fill="none" stroke="black" points="573.59,-752.32 582.99,-747.43 572.59,-745.39 573.59,-752.32"/>
<text text-anchor="middle" x="404.38" y="-773.94" font-family="Times,serif" font-size="14.00">SendValidationMessage::RequestChunk</text>
</g>
<!-- bitf_dist -->
<g id="node4" class="node">
<title>bitf_dist</title>
<ellipse fill="none" stroke="black" cx="1551.58" cy="-877.14" rx="103.18" ry="18"/>
<text text-anchor="middle" x="1551.58" y="-873.44" font-family="Times,serif" font-size="14.00">Bitfield Distribution</text>
</g>
<!-- bitf_dist&#45;&gt;net_brdg -->
<g id="edge20" class="edge">
<title>bitf_dist&#45;&gt;net_brdg</title>
<path fill="none" stroke="black" d="M1317.24,-868.14C1267.53,-867.18 1254.99,-872.35 1206.24,-882.14 1198.1,-883.78 1196.47,-886.02 1188.24,-887.14 1084.06,-901.34 1056.41,-896.33 951.66,-887.14 903.33,-882.9 890.53,-882.44 844.16,-868.14"/>
<text text-anchor="middle" x="1069.95" y="-898.94" font-family="Times,serif" font-size="14.00">ReportPeer</text>
</g>
<!-- bitf_dist&#45;&gt;net_brdg -->
<g id="edge22" class="edge">
<title>bitf_dist&#45;&gt;net_brdg</title>
<path fill="none" stroke="black" d="M1317.24,-868.14C1317.24,-868.14 844.16,-868.14 844.16,-868.14"/>
<text text-anchor="middle" x="1069.95" y="-871.94" font-family="Times,serif" font-size="14.00">SendValidationMessage</text>
</g>
<!-- bitf_dist&#45;&gt;net_brdg -->
<g id="edge23" class="edge">
<title>bitf_dist&#45;&gt;net_brdg</title>
<path fill="none" stroke="black" d="M1452.11,-872.23C1414.18,-870.59 1370.15,-869.01 1329.28,-868.3"/>
<polygon fill="none" stroke="black" points="1329.3,-864.8 1319.24,-868.14 1329.19,-871.8 1329.3,-864.8"/>
<path fill="none" stroke="black" d="M1317.24,-868.14C1259.33,-866.09 1246.04,-853.38 1188.24,-849.14 1083.38,-841.46 1056.41,-839.96 951.66,-849.14 903.33,-853.38 890.77,-881.62 844.16,-868.14"/>
<path fill="none" stroke="black" d="M842.16,-868.14C768.81,-846.93 699.31,-785.09 667.96,-754.17"/>
<text text-anchor="middle" x="1069.95" y="-852.94" font-family="Times,serif" font-size="14.00">SendValidationMessage</text>
</g>
<!-- provisioner -->
<g id="node14" class="node">
<title>provisioner</title>
<ellipse fill="none" stroke="black" cx="2079.92" cy="-760.14" rx="63.89" ry="18"/>
<text text-anchor="middle" x="2079.92" y="-756.44" font-family="Times,serif" font-size="14.00">Provisioner</text>
</g>
<!-- bitf_dist&#45;&gt;provisioner -->
<g id="edge21" class="edge">
<title>bitf_dist&#45;&gt;provisioner</title>
<path fill="none" stroke="black" d="M1625.61,-864.5C1636.55,-859.9 1646.85,-853.65 1654.92,-845.14 1677.05,-821.85 1647.91,-795.29 1672.92,-775.14 1698.16,-754.82 1896.37,-755.94 2006.22,-758.2"/>
<polygon fill="none" stroke="black" points="2006.16,-761.7 2016.24,-758.41 2006.31,-754.7 2006.16,-761.7"/>
<text text-anchor="middle" x="1811.42" y="-778.94" font-family="Times,serif" font-size="14.00">ProvisionableData::Bitfield</text>
</g>
<!-- bitf_dist&#45;&gt;runt_api -->
<g id="edge24" class="edge">
<title>bitf_dist&#45;&gt;runt_api</title>
<path fill="none" stroke="black" d="M1638.45,-887C1688.56,-892.54 1753.02,-899.29 1810.42,-904.14"/>
<path fill="none" stroke="black" d="M1812.42,-904.14C1869.67,-908.98 2273.43,-909.02 2329.42,-896.14"/>
<text text-anchor="middle" x="2079.92" y="-909.94" font-family="Times,serif" font-size="14.00">Request::Validatiors</text>
</g>
<!-- bitf_dist&#45;&gt;runt_api -->
<g id="edge25" class="edge">
<title>bitf_dist&#45;&gt;runt_api</title>
<path fill="none" stroke="black" d="M1812.42,-904.14C1881.86,-910.66 1898.34,-920.46 1967.92,-925.14 2067.26,-931.82 2098.31,-959.03 2191.92,-925.14 2201.72,-921.6 2200.36,-914.25 2209.92,-910.14 2259.06,-889.04 2277.37,-908.38 2329.42,-896.14"/>
<text text-anchor="middle" x="2079.92" y="-944.94" font-family="Times,serif" font-size="14.00">Request::SessionIndexForChild</text>
</g>
<!-- bitf_sign -->
<g id="node5" class="node">
<title>bitf_sign</title>
<ellipse fill="none" stroke="black" cx="1069.95" cy="-970.14" rx="83.39" ry="18"/>
<text text-anchor="middle" x="1069.95" y="-966.44" font-family="Times,serif" font-size="14.00">Bitfield Signing</text>
</g>
<!-- bitf_sign&#45;&gt;av_store -->
<g id="edge26" class="edge">
<title>bitf_sign&#45;&gt;av_store</title>
<path fill="none" stroke="black" d="M1148.92,-976.03C1167.69,-977.42 1187.68,-978.86 1206.24,-980.14 1487.08,-999.53 1818.91,-1020.21 1980.54,-1030.14"/>
<polygon fill="black" stroke="black" points="1980.84,-1030.16 1987.07,-1026.53 1992.82,-1030.89 1986.58,-1034.52 1980.84,-1030.16"/>
<text text-anchor="middle" x="1551.58" y="-1011.94" font-family="Times,serif" font-size="14.00">QueryChunkAvailability</text>
</g>
<!-- bitf_sign&#45;&gt;bitf_dist -->
<g id="edge28" class="edge">
<title>bitf_sign&#45;&gt;bitf_dist</title>
<path fill="none" stroke="black" d="M1141.91,-960.92C1158.42,-956.17 1175.02,-948.98 1188.24,-938.14 1202.08,-926.8 1191.38,-912.09 1206.24,-902.14 1225.38,-889.34 1345.59,-882.9 1438.65,-879.79"/>
<polygon fill="none" stroke="black" points="1438.83,-883.29 1448.71,-879.47 1438.6,-876.29 1438.83,-883.29"/>
<text text-anchor="middle" x="1318.24" y="-905.94" font-family="Times,serif" font-size="14.00">DistributeBitfield</text>
</g>
<!-- bitf_sign&#45;&gt;runt_api -->
<g id="edge27" class="edge">
<title>bitf_sign&#45;&gt;runt_api</title>
<path fill="none" stroke="black" d="M1128.23,-957.16C1152.2,-952.36 1180.43,-947.51 1206.24,-945.14 1305.38,-936.06 1330.7,-943.61 1430.24,-945.14 1661.29,-948.7 1720.68,-932.11 1949.92,-961.14 2008.22,-968.52 2021.18,-1001.06 2078.92,-990.14"/>
<path fill="none" stroke="black" d="M2080.92,-990.14C2131.08,-980.36 2154.34,-994.77 2191.92,-960.14 2209.29,-944.14 2191.42,-924.83 2209.92,-910.14 2251.81,-876.9 2277.52,-909 2329.42,-896.14"/>
<text text-anchor="middle" x="1811.42" y="-964.94" font-family="Times,serif" font-size="14.00">Request::AvailabilityCores</text>
</g>
<!-- cand_back -->
<g id="node6" class="node">
<title>cand_back</title>
<ellipse fill="none" stroke="black" cx="1551.58" cy="-622.14" rx="98.28" ry="18"/>
<text text-anchor="middle" x="1551.58" y="-618.44" font-family="Times,serif" font-size="14.00">Candidate Backing</text>
</g>
<!-- cand_back&#45;&gt;av_store -->
<g id="edge29" class="edge">
<title>cand_back&#45;&gt;av_store</title>
<path fill="none" stroke="black" d="M1569.32,-640.1C1590.9,-661.94 1630.72,-697.88 1672.92,-714.14 1730.56,-736.35 1906.59,-693.13 1949.92,-737.14 1991.65,-779.52 1930.59,-957.85 1967.92,-1004.14 1973.99,-1011.66 1981.7,-1017.48 1990.22,-1021.98"/>
<polygon fill="black" stroke="black" points="1990.45,-1022.08 1997.56,-1020.89 2001.39,-1027 1994.28,-1028.19 1990.45,-1022.08"/>
<text text-anchor="middle" x="1811.42" y="-740.94" font-family="Times,serif" font-size="14.00">StoreAvailableData</text>
</g>
<!-- cand_sel -->
<g id="node7" class="node">
<title>cand_sel</title>
<ellipse fill="none" stroke="black" cx="2079.92" cy="-453.14" rx="103.98" ry="18"/>
<text text-anchor="middle" x="2079.92" y="-449.44" font-family="Times,serif" font-size="14.00">Candidate Selection</text>
</g>
<!-- cand_back&#45;&gt;cand_sel -->
<g id="edge32" class="edge">
<title>cand_back&#45;&gt;cand_sel</title>
<path fill="none" stroke="black" d="M1573.09,-604.45C1595.81,-586.01 1634.34,-558.03 1672.92,-545.14 1790.03,-506.02 1831.59,-559.38 1949.92,-524.14 1984.99,-513.7 2021.17,-492.74 2046.25,-476.29"/>
<polygon fill="none" stroke="black" points="2048.28,-479.15 2054.65,-470.68 2044.39,-473.33 2048.28,-479.15"/>
<text text-anchor="middle" x="1811.42" y="-548.94" font-family="Times,serif" font-size="14.00">Invalid</text>
</g>
<!-- cand_val -->
<g id="node8" class="node">
<title>cand_val</title>
<ellipse fill="none" stroke="black" cx="2079.92" cy="-706.14" rx="107.48" ry="18"/>
<text text-anchor="middle" x="2079.92" y="-702.44" font-family="Times,serif" font-size="14.00">Candidate Validation</text>
</g>
<!-- cand_back&#45;&gt;cand_val -->
<g id="edge31" class="edge">
<title>cand_back&#45;&gt;cand_val</title>
<path fill="none" stroke="black" d="M1594.97,-605.97C1669.62,-580.1 1828.16,-536.97 1949.92,-585.14 1997.18,-603.83 2037.24,-648.92 2059.67,-678.47"/>
<polygon fill="black" stroke="black" points="2059.73,-678.55 2066.51,-681 2066.85,-688.2 2060.07,-685.75 2059.73,-678.55"/>
<text text-anchor="middle" x="1811.42" y="-588.94" font-family="Times,serif" font-size="14.00">ValidateFromChainState</text>
</g>
<!-- pov_dist -->
<g id="node13" class="node">
<title>pov_dist</title>
<ellipse fill="none" stroke="black" cx="2079.92" cy="-399.14" rx="87.18" ry="18"/>
<text text-anchor="middle" x="2079.92" y="-395.44" font-family="Times,serif" font-size="14.00">PoV Distribution</text>
</g>
<!-- cand_back&#45;&gt;pov_dist -->
<g id="edge30" class="edge">
<title>cand_back&#45;&gt;pov_dist</title>
<path fill="none" stroke="black" d="M1564.85,-603.84C1584.36,-574.6 1623.47,-515.4 1654.92,-464.14 1663.26,-450.56 1659.46,-441.66 1672.92,-433.14 1725.13,-400.13 1888.37,-415.32 1949.92,-410.14 1961.85,-409.14 1974.4,-408.08 1986.79,-407.02"/>
<polygon fill="black" stroke="black" points="1987.15,-406.99 1992.78,-402.5 1999.1,-405.98 1993.46,-410.47 1987.15,-406.99"/>
<text text-anchor="middle" x="1811.42" y="-436.94" font-family="Times,serif" font-size="14.00">FetchPoV</text>
</g>
<!-- cand_back&#45;&gt;pov_dist -->
<g id="edge35" class="edge">
<title>cand_back&#45;&gt;pov_dist</title>
<path fill="none" stroke="black" d="M1560.44,-603.96C1576.17,-570.08 1615.05,-497.98 1672.92,-467.14 1727.38,-438.13 1895.1,-476.46 1949.92,-448.14 1961.15,-442.34 1957.23,-432.87 1967.92,-426.14 1977.11,-420.36 1987.45,-415.81 1998.02,-412.24"/>
<polygon fill="none" stroke="black" points="1999.24,-415.53 2007.76,-409.23 1997.18,-408.84 1999.24,-415.53"/>
<text text-anchor="middle" x="1811.42" y="-470.94" font-family="Times,serif" font-size="14.00">DistributePoV</text>
</g>
<!-- cand_back&#45;&gt;provisioner -->
<g id="edge33" class="edge">
<title>cand_back&#45;&gt;provisioner</title>
<path fill="none" stroke="black" d="M1630.2,-633.03C1644.4,-634.86 1659.09,-636.65 1672.92,-638.14 1703.63,-641.46 1926.39,-641.14 1949.92,-661.14 1975.06,-682.5 1944.53,-709.89 1967.92,-733.14 1978.55,-743.7 1992.58,-750.38 2007.07,-754.55"/>
<polygon fill="none" stroke="black" points="2006.59,-758.04 2017.14,-757.05 2008.28,-751.25 2006.59,-758.04"/>
<text text-anchor="middle" x="1811.42" y="-664.94" font-family="Times,serif" font-size="14.00">ProvisionableData::MisbehaviorReport</text>
</g>
<!-- cand_back&#45;&gt;provisioner -->
<g id="edge34" class="edge">
<title>cand_back&#45;&gt;provisioner</title>
<path fill="none" stroke="black" d="M1642.7,-615.35C1752.75,-607.99 1927.18,-599.7 1949.92,-619.14 1988.92,-652.46 1933.17,-695.42 1967.92,-733.14 1978.13,-744.22 1992.06,-751.11 2006.59,-755.31"/>
<polygon fill="none" stroke="black" points="2006.17,-758.81 2016.72,-757.8 2007.85,-752.01 2006.17,-758.81"/>
<text text-anchor="middle" x="1811.42" y="-622.94" font-family="Times,serif" font-size="14.00">ProvisionableData::BackedCandidate</text>
</g>
<!-- stmt_dist -->
<g id="node16" class="node">
<title>stmt_dist</title>
<ellipse fill="none" stroke="black" cx="1069.95" cy="-693.14" rx="118.08" ry="18"/>
<text text-anchor="middle" x="1069.95" y="-689.44" font-family="Times,serif" font-size="14.00">Statement Distribution</text>
</g>
<!-- cand_back&#45;&gt;stmt_dist -->
<g id="edge36" class="edge">
<title>cand_back&#45;&gt;stmt_dist</title>
<path fill="none" stroke="black" d="M1507.44,-638.24C1484.77,-646.06 1456.34,-654.89 1430.24,-660.14 1352.99,-675.7 1264.89,-683.94 1195.26,-688.29"/>
<polygon fill="none" stroke="black" points="1194.9,-684.81 1185.13,-688.9 1195.32,-691.79 1194.9,-684.81"/>
<text text-anchor="middle" x="1318.24" y="-691.94" font-family="Times,serif" font-size="14.00">Share</text>
</g>
<!-- cand_sel&#45;&gt;cand_back -->
<g id="edge38" class="edge">
<title>cand_sel&#45;&gt;cand_back</title>
<path fill="none" stroke="black" d="M2026.97,-468.73C2003.62,-475.14 1975.6,-482.01 1949.92,-486.14 1889.01,-495.94 1729.26,-479.99 1672.92,-505.14 1629.04,-524.74 1591.75,-567.65 1570.77,-595.7"/>
<polygon fill="none" stroke="black" points="1567.87,-593.74 1564.8,-603.88 1573.52,-597.87 1567.87,-593.74"/>
<text text-anchor="middle" x="1811.42" y="-508.94" font-family="Times,serif" font-size="14.00">Second</text>
</g>
<!-- coll_prot -->
<g id="node11" class="node">
<title>coll_prot</title>
<ellipse fill="none" stroke="black" cx="2557.97" cy="-303.14" rx="89.08" ry="18"/>
<text text-anchor="middle" x="2557.97" y="-299.44" font-family="Times,serif" font-size="14.00">Collator Protocol</text>
</g>
<!-- cand_sel&#45;&gt;coll_prot -->
<g id="edge37" class="edge">
<title>cand_sel&#45;&gt;coll_prot</title>
<path fill="none" stroke="black" d="M2166.22,-442.99C2175.77,-438.93 2184.66,-433.47 2191.92,-426.14 2216.66,-401.18 2183.89,-372.75 2209.92,-349.14 2281.94,-283.85 2399.44,-282.19 2477.47,-290.13"/>
<polygon fill="black" stroke="black" points="2477.71,-290.16 2484.12,-286.85 2489.64,-291.48 2483.24,-294.8 2477.71,-290.16"/>
<text text-anchor="middle" x="2330.42" y="-352.94" font-family="Times,serif" font-size="14.00">FetchCollation</text>
</g>
<!-- cand_sel&#45;&gt;coll_prot -->
<g id="edge39" class="edge">
<title>cand_sel&#45;&gt;coll_prot</title>
<path fill="none" stroke="black" d="M2181.93,-456.81C2259.16,-455.75 2366.4,-445.71 2450.92,-405.14 2487.18,-387.74 2518.95,-353.16 2538.04,-329.12"/>
<polygon fill="none" stroke="black" points="2540.89,-331.15 2544.25,-321.1 2535.36,-326.86 2540.89,-331.15"/>
<text text-anchor="middle" x="2330.42" y="-459.94" font-family="Times,serif" font-size="14.00">ReportCollator</text>
</g>
<!-- cand_val&#45;&gt;runt_api -->
<g id="edge40" class="edge">
<title>cand_val&#45;&gt;runt_api</title>
<path fill="none" stroke="black" d="M2165.54,-716.98C2180.33,-718.78 2195.57,-720.57 2209.92,-722.14 2316.88,-733.88 2349.11,-710.34 2450.92,-745.14 2478.47,-754.56 2506.17,-772.41 2526.35,-787.32"/>
<polygon fill="black" stroke="black" points="2526.62,-787.53 2533.81,-787.98 2536.17,-794.79 2528.97,-794.35 2526.62,-787.53"/>
<text text-anchor="middle" x="2330.42" y="-748.94" font-family="Times,serif" font-size="14.00">Request::PersistedValidationData</text>
</g>
<!-- cand_val&#45;&gt;runt_api -->
<g id="edge41" class="edge">
<title>cand_val&#45;&gt;runt_api</title>
<path fill="none" stroke="black" d="M2142.08,-691.37C2217.87,-676.19 2349.43,-660.28 2450.92,-703.14 2489.62,-719.48 2521.17,-757.6 2539.51,-784.13"/>
<polygon fill="black" stroke="black" points="2539.67,-784.36 2546.33,-787.13 2546.33,-794.34 2539.67,-791.57 2539.67,-784.36"/>
<text text-anchor="middle" x="2330.42" y="-706.94" font-family="Times,serif" font-size="14.00">Request::ValidationCode</text>
</g>
<!-- cand_val&#45;&gt;runt_api -->
<g id="edge42" class="edge">
<title>cand_val&#45;&gt;runt_api</title>
<path fill="none" stroke="black" d="M2161.08,-717.97C2172.02,-721.73 2182.66,-726.66 2191.92,-733.14 2203.74,-741.41 2197.55,-752.74 2209.92,-760.14 2256.1,-787.75 2398,-773.45 2450.92,-783.14 2467.38,-786.15 2485,-790.5 2501.06,-794.92"/>
<polygon fill="black" stroke="black" points="2501.44,-795.03 2508.3,-792.81 2512.99,-798.29 2506.12,-800.51 2501.44,-795.03"/>
<text text-anchor="middle" x="2330.42" y="-786.94" font-family="Times,serif" font-size="14.00">Request::CheckValidationOutputs</text>
</g>
<!-- coll_gen -->
<g id="node10" class="node">
<title>coll_gen</title>
<ellipse fill="none" stroke="black" cx="2079.92" cy="-30.14" rx="106.68" ry="18"/>
<text text-anchor="middle" x="2079.92" y="-26.44" font-family="Times,serif" font-size="14.00">Collation Generation</text>
</g>
<!-- coll_gen&#45;&gt;coll_prot -->
<g id="edge43" class="edge">
<title>coll_gen&#45;&gt;coll_prot</title>
<path fill="none" stroke="black" d="M2139.27,-15.11C2217.75,1.48 2358.16,17.97 2450.92,-47.14 2527.34,-100.78 2548.84,-220.21 2554.77,-274.86"/>
<polygon fill="none" stroke="black" points="2551.29,-275.28 2555.76,-284.88 2558.26,-274.59 2551.29,-275.28"/>
<text text-anchor="middle" x="2330.42" y="-50.94" font-family="Times,serif" font-size="14.00">DistributeCollation</text>
</g>
<!-- coll_prot&#45;&gt;cand_sel -->
<g id="edge49" class="edge">
<title>coll_prot&#45;&gt;cand_sel</title>
<path fill="none" stroke="black" d="M2533.51,-320.63C2512.9,-334.98 2481.5,-354.46 2450.92,-364.14 2399.65,-380.37 2253.71,-354.92 2209.92,-386.14 2194.05,-397.46 2206.92,-413.68 2191.92,-426.14 2186.16,-430.93 2179.67,-434.9 2172.8,-438.18"/>
<polygon fill="none" stroke="black" points="2171.08,-435.11 2163.24,-442.24 2173.81,-441.55 2171.08,-435.11"/>
<text text-anchor="middle" x="2330.42" y="-389.94" font-family="Times,serif" font-size="14.00">Collation</text>
</g>
<!-- coll_prot&#45;&gt;net_brdg -->
<g id="edge44" class="edge">
<title>coll_prot&#45;&gt;net_brdg</title>
<path fill="none" stroke="black" d="M1810.42,-229.14C1734.63,-229.14 1729.03,-283.23 1654.92,-299.14 1565.11,-318.42 1537.28,-321.74 1448.24,-299.14 1385.02,-283.09 1384.47,-229.14 1319.24,-229.14"/>
<text text-anchor="middle" x="1551.58" y="-318.94" font-family="Times,serif" font-size="14.00">ReportPeer</text>
</g>
<!-- coll_prot&#45;&gt;net_brdg -->
<g id="edge45" class="edge">
<title>coll_prot&#45;&gt;net_brdg</title>
<path fill="none" stroke="black" d="M1810.42,-229.14C1740.8,-228.71 1724.42,-243.91 1654.92,-248.14 1563.24,-253.72 1539.86,-254.85 1448.24,-248.14 1390.45,-243.91 1377.19,-228.74 1319.24,-229.14"/>
<text text-anchor="middle" x="1551.58" y="-256.94" font-family="Times,serif" font-size="14.00">Declare</text>
</g>
<!-- coll_prot&#45;&gt;net_brdg -->
<g id="edge46" class="edge">
<title>coll_prot&#45;&gt;net_brdg</title>
<path fill="none" stroke="black" d="M1810.42,-229.14C1592.15,-225.53 1537.51,-225.12 1319.24,-229.14"/>
<text text-anchor="middle" x="1551.58" y="-230.94" font-family="Times,serif" font-size="14.00">AdvertiseCollation</text>
</g>
<!-- coll_prot&#45;&gt;net_brdg -->
<g id="edge47" class="edge">
<title>coll_prot&#45;&gt;net_brdg</title>
<path fill="none" stroke="black" d="M1810.42,-229.14C1740.7,-227.93 1724.51,-212.82 1654.92,-208.14 1563.27,-201.98 1539.8,-200.74 1448.24,-208.14 1390.34,-212.82 1377.32,-228.02 1319.24,-229.14"/>
<text text-anchor="middle" x="1551.58" y="-211.94" font-family="Times,serif" font-size="14.00">Collation</text>
</g>
<!-- coll_prot&#45;&gt;net_brdg -->
<g id="edge48" class="edge">
<title>coll_prot&#45;&gt;net_brdg</title>
<path fill="none" stroke="black" d="M2494.9,-290.34C2480.51,-287.67 2465.22,-285.09 2450.92,-283.14 2172.18,-245.17 2098.96,-225.04 1822.76,-228.98"/>
<polygon fill="none" stroke="black" points="1822.37,-225.49 1812.42,-229.14 1822.48,-232.49 1822.37,-225.49"/>
<path fill="none" stroke="black" d="M1810.42,-229.14C1738.48,-228.73 1726.16,-194.24 1654.92,-184.14 1563.97,-171.25 1538.81,-168.8 1448.24,-184.14 1388.37,-194.28 1379.96,-228.51 1319.24,-229.14"/>
<path fill="none" stroke="black" d="M1317.24,-229.14C1059.76,-230.8 938.19,-180.59 752.66,-359.14 699.16,-410.63 662.45,-649.92 652.95,-718.02"/>
<text text-anchor="middle" x="1551.58" y="-187.94" font-family="Times,serif" font-size="14.00">RequestCollation</text>
</g>
<!-- net_brdg&#45;&gt;avail_dist -->
<g id="edge50" class="edge">
<title>net_brdg&#45;&gt;avail_dist</title>
<path fill="none" stroke="black" d="M648.18,-754.33C646.13,-806.08 632.66,-955 546.38,-1026.14 497.15,-1066.73 325.44,-1058.5 262.38,-1068.14 247.3,-1070.45 231.31,-1072.94 215.75,-1075.38"/>
<polygon fill="none" stroke="black" points="214.93,-1071.97 205.6,-1076.98 216.02,-1078.88 214.93,-1071.97"/>
<text text-anchor="middle" x="404.38" y="-1071.94" font-family="Times,serif" font-size="14.00">NetworkBridgeUpdateV1</text>
</g>
<!-- net_brdg&#45;&gt;bitf_dist -->
<g id="edge51" class="edge">
<title>net_brdg&#45;&gt;bitf_dist</title>
<path fill="none" stroke="black" d="M721.36,-745.93C858.48,-765.07 1169.63,-809.53 1430.24,-854.14 1443.91,-856.48 1458.42,-859.12 1472.45,-861.75"/>
<polygon fill="none" stroke="black" points="1472.09,-865.25 1482.57,-863.67 1473.39,-858.37 1472.09,-865.25"/>
<text text-anchor="middle" x="1069.95" y="-816.94" font-family="Times,serif" font-size="14.00">NetworkBridgeUpdateV1</text>
</g>
<!-- net_brdg&#45;&gt;coll_prot -->
<g id="edge54" class="edge">
<title>net_brdg&#45;&gt;coll_prot</title>
<path fill="none" stroke="black" d="M652.18,-718.02C659.81,-638.31 693.58,-319.4 752.66,-241.14 848.2,-114.61 910.4,-76.14 1068.95,-76.14 1068.95,-76.14 1068.95,-76.14 2080.92,-76.14 2267.45,-76.14 2458.57,-219.89 2528.85,-278.61"/>
<polygon fill="none" stroke="black" points="2526.92,-281.55 2536.81,-285.33 2531.43,-276.2 2526.92,-281.55"/>
<text text-anchor="middle" x="1551.58" y="-79.94" font-family="Times,serif" font-size="14.00">NetworkBridgeUpdateV1</text>
</g>
<!-- net_brdg&#45;&gt;pov_dist -->
<g id="edge52" class="edge">
<title>net_brdg&#45;&gt;pov_dist</title>
<path fill="none" stroke="black" d="M650.58,-718.05C651.8,-665.13 663.21,-509.7 752.66,-436.14 909.78,-306.96 1003.29,-388.73 1206.24,-375.14 1361.22,-364.77 1872.71,-383.89 1949.92,-388.14 1962.98,-388.86 1976.76,-389.82 1990.27,-390.88"/>
<polygon fill="none" stroke="black" points="1990.28,-394.39 2000.53,-391.7 1990.84,-387.41 1990.28,-394.39"/>
<text text-anchor="middle" x="1318.24" y="-378.94" font-family="Times,serif" font-size="14.00">NetworkBridgeUpdateV1</text>
</g>
<!-- net_brdg&#45;&gt;stmt_dist -->
<g id="edge53" class="edge">
<title>net_brdg&#45;&gt;stmt_dist</title>
<path fill="none" stroke="black" d="M686.58,-719.79C705.78,-711.93 730.04,-703.34 752.66,-699.14 816.98,-687.22 889.92,-685.09 949.53,-686.23"/>
<polygon fill="none" stroke="black" points="949.66,-689.73 959.74,-686.46 949.82,-682.73 949.66,-689.73"/>
<text text-anchor="middle" x="843.16" y="-702.94" font-family="Times,serif" font-size="14.00">NetworkBridgeUpdateV1</text>
</g>
<!-- pov_dist&#45;&gt;net_brdg -->
<g id="edge55" class="edge">
<title>pov_dist&#45;&gt;net_brdg</title>
<path fill="none" stroke="black" d="M1550.58,-450.14C1337.75,-462.13 1283.97,-442 1070.95,-450.14"/>
<text text-anchor="middle" x="1318.24" y="-457.94" font-family="Times,serif" font-size="14.00">SendValidationMessage</text>
</g>
<!-- pov_dist&#45;&gt;net_brdg -->
<g id="edge56" class="edge">
<title>pov_dist&#45;&gt;net_brdg</title>
<path fill="none" stroke="black" d="M1994.3,-395.61C1911.72,-393.68 1782.82,-394.69 1672.92,-413.14 1621.3,-421.81 1609.76,-442.74 1562.81,-449.05"/>
<polygon fill="none" stroke="black" points="1562.16,-445.6 1552.58,-450.14 1562.9,-452.56 1562.16,-445.6"/>
<path fill="none" stroke="black" d="M1550.58,-450.14C1496.46,-453.42 1484.28,-434.6 1430.24,-430.14 1270.85,-416.99 1226.16,-411.56 1070.95,-450.14"/>
<path fill="none" stroke="black" d="M1068.95,-450.14C878.56,-456.65 710.93,-656.7 663.73,-718.28"/>
<text text-anchor="middle" x="1318.24" y="-433.94" font-family="Times,serif" font-size="14.00">ReportPeer</text>
</g>
<!-- provisioner&#45;&gt;cand_back -->
<g id="edge57" class="edge">
<title>provisioner&#45;&gt;cand_back</title>
<path fill="none" stroke="black" d="M2018.64,-754.96C2000.91,-751.06 1982.4,-744.41 1967.92,-733.14 1954.43,-722.64 1964.19,-708.56 1949.92,-699.14 1898.37,-665.12 1732.74,-691.56 1672.92,-676.14 1645.61,-669.1 1616.72,-656.33 1594.09,-644.98"/>
<polygon fill="black" stroke="black" points="1593.87,-644.86 1586.7,-645.68 1583.19,-639.38 1590.36,-638.56 1593.87,-644.86"/>
<text text-anchor="middle" x="1811.42" y="-702.94" font-family="Times,serif" font-size="14.00">GetBackedCandidates</text>
</g>
<!-- provisioner&#45;&gt;chn_api -->
<g id="edge58" class="edge">
<title>provisioner&#45;&gt;chn_api</title>
<path fill="none" stroke="black" d="M2122.24,-773.66C2215.9,-804.42 2437.31,-877.75 2450.92,-888.14 2495.09,-921.85 2527.44,-979.36 2544.14,-1014.05"/>
<polygon fill="black" stroke="black" points="2544.31,-1014.42 2550.48,-1018.17 2549.39,-1025.29 2543.23,-1021.55 2544.31,-1014.42"/>
<text text-anchor="middle" x="2330.42" y="-891.94" font-family="Times,serif" font-size="14.00">BlockNumber</text>
</g>
<!-- stmt_dist&#45;&gt;cand_back -->
<g id="edge61" class="edge">
<title>stmt_dist&#45;&gt;cand_back</title>
<path fill="none" stroke="black" d="M1106.48,-675.97C1133.23,-663.91 1171.18,-648.65 1206.24,-641.14 1284.62,-624.35 1375.19,-619.93 1443.77,-619.53"/>
<polygon fill="none" stroke="black" points="1444.16,-623.02 1454.15,-619.49 1444.14,-616.02 1444.16,-623.02"/>
<text text-anchor="middle" x="1318.24" y="-644.94" font-family="Times,serif" font-size="14.00">Statement</text>
</g>
<!-- stmt_dist&#45;&gt;net_brdg -->
<g id="edge59" class="edge">
<title>stmt_dist&#45;&gt;net_brdg</title>
<path fill="none" stroke="black" d="M1016.17,-677.03C952.31,-660.19 842.23,-639.73 752.66,-667.14 724.02,-675.91 696.15,-695.73 676.78,-711.88"/>
<polygon fill="none" stroke="black" points="674.34,-709.37 669.03,-718.54 678.9,-714.68 674.34,-709.37"/>
<text text-anchor="middle" x="843.16" y="-670.94" font-family="Times,serif" font-size="14.00">SendValidationMessage</text>
</g>
<!-- stmt_dist&#45;&gt;net_brdg -->
<g id="edge60" class="edge">
<title>stmt_dist&#45;&gt;net_brdg</title>
<path fill="none" stroke="black" d="M990.04,-706.43C971.58,-709.25 951.96,-712.01 933.66,-714.14 869.81,-721.57 797.55,-727.14 742.01,-730.81"/>
<polygon fill="none" stroke="black" points="741.59,-727.33 731.84,-731.48 742.05,-734.32 741.59,-727.33"/>
<text text-anchor="middle" x="843.16" y="-733.94" font-family="Times,serif" font-size="14.00">ReportPeer</text>
</g>
<!-- stmt_dist&#45;&gt;runt_api -->
<g id="edge62" class="edge">
<title>stmt_dist&#45;&gt;runt_api</title>
<path fill="none" stroke="black" d="M1552.58,-831.14C1595.64,-835.79 2287.24,-905.93 2329.42,-896.14"/>
<path fill="none" stroke="black" d="M2331.42,-896.14C2383.33,-883.29 2400.69,-900.48 2450.92,-882.14 2479.88,-871.57 2508.82,-851.68 2529.14,-835.8"/>
<polygon fill="none" stroke="black" points="2531.4,-838.47 2537.02,-829.5 2527.02,-833.01 2531.4,-838.47"/>
<text text-anchor="middle" x="1811.42" y="-871.94" font-family="Times,serif" font-size="14.00">Request::Validators</text>
</g>
<!-- stmt_dist&#45;&gt;runt_api -->
<g id="edge63" class="edge">
<title>stmt_dist&#45;&gt;runt_api</title>
<path fill="none" stroke="black" d="M1112.69,-709.94C1194.84,-741.92 1384.01,-810.23 1550.58,-831.14"/>
<path fill="none" stroke="black" d="M1552.58,-831.14C1605.68,-838.25 1619.38,-826.06 1672.92,-824.14 1969.82,-813.5 2323.12,-812.09 2477.82,-812.04"/>
<polygon fill="none" stroke="black" points="2478.16,-815.54 2488.16,-812.03 2478.16,-808.54 2478.16,-815.54"/>
<text text-anchor="middle" x="1811.42" y="-827.94" font-family="Times,serif" font-size="14.00">Request::SessionIndexForChild</text>
</g>
</g>
</svg>
