<?xml version="1.0" encoding="UTF-8" standalone="no"?>
<!DOCTYPE svg PUBLIC "-//W3C//DTD SVG 1.1//EN"
 "http://www.w3.org/Graphics/SVG/1.1/DTD/svg11.dtd">
<!-- Generated by graphviz version 2.43.0 (0)
 -->
<!-- Title: G Pages: 1 -->
<svg width="364pt" height="209pt"
 viewBox="0.00 0.00 364.00 209.00" xmlns="http://www.w3.org/2000/svg" xmlns:xlink="http://www.w3.org/1999/xlink">
<g id="graph0" class="graph" transform="scale(1 1) rotate(0) translate(4 205)">
<title>G</title>
<polygon fill="white" stroke="transparent" points="-4,4 -4,-205 360,-205 360,4 -4,4"/>
<text text-anchor="middle" x="178" y="-185.8" font-family="Times,serif" font-size="14.00">Declaring, advertising, and providing collations</text>
<g id="clust1" class="cluster">
<title>cluster_collator</title>
<polygon fill="none" stroke="black" points="8.25,-41 8.25,-170 82.25,-170 82.25,-41 8.25,-41"/>
<text text-anchor="middle" x="45.25" y="-154.8" font-family="Times,serif" font-size="14.00">Collator</text>
</g>
<g id="clust2" class="cluster">
<title>cluster_validator</title>
<polygon fill="none" stroke="black" points="259.25,-8 259.25,-170 340.25,-170 340.25,-8 259.25,-8"/>
<text text-anchor="middle" x="299.75" y="-154.8" font-family="Times,serif" font-size="14.00">Validator</text>
</g>
<!-- c1 -->
<g id="node1" class="node">
<title>c1</title>
<ellipse fill="none" stroke="black" cx="45.25" cy="-121" rx="27" ry="18"/>
</g>
<!-- v1 -->
<g id="node3" class="node">
<title>v1</title>
<ellipse fill="none" stroke="black" cx="299.25" cy="-121" rx="27" ry="18"/>
</g>
<!-- c1&#45;&gt;v1 -->
<g id="edge1" class="edge">
<title>c1&#45;&gt;v1</title>
<path fill="none" stroke="black" d="M72.27,-121C117.45,-121 210.48,-121 261.97,-121"/>
<polygon fill="black" stroke="black" points="261.99,-124.5 271.99,-121 261.99,-117.5 261.99,-124.5"/>
<text text-anchor="middle" x="170.75" y="-124.8" font-family="Times,serif" font-size="14.00">Declare and advertise</text>
</g>
<!-- c2 -->
<g id="node2" class="node">
<title>c2</title>
<ellipse fill="none" stroke="black" cx="45.25" cy="-67" rx="27" ry="18"/>
</g>
<!-- v2 -->
<g id="node4" class="node">
<title>v2</title>
<ellipse fill="none" stroke="black" cx="299.25" cy="-34" rx="27" ry="18"/>
</g>
<!-- c2&#45;&gt;v2 -->
<g id="edge3" class="edge">
<title>c2&#45;&gt;v2</title>
<path fill="none" stroke="black" d="M65.18,-54.74C73.2,-50.19 82.85,-45.52 92.25,-43 150.14,-27.46 220.42,-28.4 262.12,-30.91"/>
<polygon fill="black" stroke="black" points="262.13,-34.41 272.34,-31.59 262.59,-27.43 262.13,-34.41"/>
<text text-anchor="middle" x="170.75" y="-46.8" font-family="Times,serif" font-size="14.00">Provide</text>
</g>
<!-- v1&#45;&gt;c2 -->
<g id="edge2" class="edge">
<title>v1&#45;&gt;c2</title>
<path fill="none" stroke="black" d="M276.12,-111.34C267.82,-108.01 258.22,-104.49 249.25,-102 191.86,-86.1 123.25,-76.08 82.29,-71.01"/>
<polygon fill="black" stroke="black" points="82.6,-67.52 72.25,-69.8 81.76,-74.47 82.6,-67.52"/>
<text text-anchor="middle" x="170.75" y="-105.8" font-family="Times,serif" font-size="14.00">Request</text>
</g>
<!-- v2&#45;&gt;v2 -->
<g id="edge4" class="edge">
<title>v2&#45;&gt;v2</title>
<path fill="none" stroke="black" d="M279.52,-46.54C269.92,-57.87 276.5,-70 299.25,-70 315.78,-70 323.77,-63.6 323.22,-55.75"/>
<polygon fill="black" stroke="black" points="326.34,-54.16 318.98,-46.54 319.99,-57.09 326.34,-54.16"/>
<text text-anchor="middle" x="299.25" y="-73.8" font-family="Times,serif" font-size="14.00">Note Good/Bad</text>
</g>
</g>
</svg>
