<?xml version="1.0" encoding="UTF-8" standalone="no"?>
<!DOCTYPE svg PUBLIC "-//W3C//DTD SVG 1.1//EN"
 "http://www.w3.org/Graphics/SVG/1.1/DTD/svg11.dtd">
<!-- Generated by graphviz version 2.43.0 (0)
 -->
<!-- Title: %3 Pages: 1 -->
<svg width="216pt" height="116pt"
 viewBox="0.00 0.00 216.00 116.00" xmlns="http://www.w3.org/2000/svg" xmlns:xlink="http://www.w3.org/1999/xlink">
<g id="graph0" class="graph" transform="scale(1 1) rotate(0) translate(4 112)">
<title>%3</title>
<polygon fill="white" stroke="transparent" points="-4,4 -4,-112 212,-112 212,4 -4,4"/>
<!-- c1 -->
<g id="node1" class="node">
<title>c1</title>
<polygon fill="none" stroke="black" points="95,-108 8,-108 8,-72 95,-72 95,-108"/>
<text text-anchor="middle" x="51.5" y="-86.3" font-family="Times,serif" font-size="14.00">Collator 1</text>
</g>
<!-- v1 -->
<g id="node3" class="node">
<title>v1</title>
<polygon fill="none" stroke="black" points="95,-36 0,-36 0,0 95,0 95,-36"/>
<text text-anchor="middle" x="47.5" y="-14.3" font-family="Times,serif" font-size="14.00">Validator 1</text>
</g>
<!-- c1&#45;&gt;v1 -->
<g id="edge1" class="edge">
<title>c1&#45;&gt;v1</title>
<path fill="none" stroke="black" d="M50.51,-71.7C50.07,-63.98 49.54,-54.71 49.05,-46.11"/>
<polygon fill="black" stroke="black" points="52.54,-45.89 48.48,-36.1 45.55,-46.29 52.54,-45.89"/>
</g>
<!-- v2 -->
<g id="node4" class="node">
<title>v2</title>
<polygon fill="none" stroke="black" points="208,-36 113,-36 113,0 208,0 208,-36"/>
<text text-anchor="middle" x="160.5" y="-14.3" font-family="Times,serif" font-size="14.00">Validator 2</text>
</g>
<!-- c1&#45;&gt;v2 -->
<g id="edge2" class="edge">
<title>c1&#45;&gt;v2</title>
<path fill="none" stroke="black" d="M78.16,-71.88C92.28,-62.81 109.81,-51.55 125.06,-41.76"/>
<polygon fill="black" stroke="black" points="127.21,-44.54 133.73,-36.19 123.43,-38.65 127.21,-44.54"/>
</g>
<!-- c2 -->
<g id="node2" class="node">
<title>c2</title>
<polygon fill="none" stroke="black" points="204,-108 117,-108 117,-72 204,-72 204,-108"/>
<text text-anchor="middle" x="160.5" y="-86.3" font-family="Times,serif" font-size="14.00">Collator 2</text>
</g>
<!-- c2&#45;&gt;v2 -->
<g id="edge3" class="edge">
<title>c2&#45;&gt;v2</title>
<path fill="none" stroke="black" d="M160.5,-71.7C160.5,-63.98 160.5,-54.71 160.5,-46.11"/>
<polygon fill="black" stroke="black" points="164,-46.1 160.5,-36.1 157,-46.1 164,-46.1"/>
</g>
</g>
</svg>
